<mxfile host="app.diagrams.net" agent="Mozilla/5.0 (Windows NT 10.0; Win64; x64) AppleWebKit/537.36 (KHTML, like Gecko) Chrome/131.0.0.0 Safari/537.36" version="26.0.4">
  <diagram name="第 1 页" id="SErGIJoAgm-qFA9GCptO">
    <mxGraphModel dx="1050" dy="522" grid="1" gridSize="10" guides="1" tooltips="1" connect="1" arrows="1" fold="1" page="1" pageScale="1" pageWidth="827" pageHeight="1169" math="0" shadow="0">
      <root>
        <mxCell id="0" />
        <mxCell id="1" parent="0" />
        <mxCell id="B9ramNsetT_-WB2Bf5wg-1" value="" style="shape=image;verticalLabelPosition=bottom;labelBackgroundColor=default;verticalAlign=top;aspect=fixed;imageAspect=0;image=data:image/png,iVBORw0KGgoAAAANSUhEUgAAAH0AAAB9CAIAAAAA4vtyAAAgAElEQVR4ARzBB1wTh8IA8Bu5Sy657MUM24FSB2pxL5wgQywqbhx1Vftqd78+a33ta6vW2qXP4mSIiuBEBQcq1lVrFTcrYYTseSs3ku/38/8H6+rqlErlq1ev/vzzz7y8PLlc3t3drVarp0yZcunSJUEQCIIwmUx9fX0JCQmvX7+Oi4sjSZJhmKKiIoZhGhoaIAhaunRpTU3Nhx9++P333+fl5X388cc3btyQSqVjx4797LPPLl26lJaWZrVapVIpx3EWi2Xp0qWnTp1iGCYjI6O5ubmuru7GjRs//PCD8Y329vZ333132LBhTqdz6dKleXl5DofDbrevXr36zp07YrHY5/N5PB6dTme324cMGfL3338PGzZsw4YNHMd5PJ7t27cbDAaXy4UgyLp161avXn3jxg0IgmQyGU3TTU1NQ4YMMRgM48ePT0lJAUHw7t279+/fVyqVFy9enD17NgiCbrdbrVa73W6TyTRx4sTo6OhQKKTT6VAUVSqVHo+H53mWZadPn/7gwQOlUmk2m30+X1ZWVnt7e2xs7KtXr7RaLUEQcrnc5XLFx8f7/X4AAHw+HwzD8fHxAwYMACsrKwmCkMlkEAS5XK4FCxbU19fn5eWdOXNGp9P5/f6ZM2devHhx0aJFgUCgrq4uISEhNTX17t2769ev/+677xISEux2O4ZhcrlcKpX6fD6bzfbTTz8RBDFhwoSSkpLu7u5IJBIVFTV+/PiamhoAAORyeVRUlNlsXrNmzYULF/r6+mQyWX19vdls1mg0FEV1dXWp1WoAABITE+fPn4/juN1uVyqVs2bNKisrQxDEZDIlJydfvny5X79+Pp/vr7/+am5uFolEjY2NCxYsiEQiEokEAIDnz58zDCMIAo7jzc3N48ePP3/+fG5u7vTp0996662YmBiRSNTR0REKhdauXevz+YLBYEFBAc/zLMsqFIpwOHzhwoUXL150dnaCICiVSnNzc2/cuMHzPE3ThYWFZWVlaWlpgUAAQRClUjly5MiGhgalUimTyV6+fAkAQGFh4fHjx6Ojo8eOHet2u58/fw7DsN/vHzp0KLhjx44BAwY8e/bsq6++qq6upmlaLBY7nc7S0tK7d+9aLBYMw2w2m0ql0mq1PM9TFEWSpMlkCgaDCoWCJMlQKDRlypTq6uovvvgCQZD169cfOXLk0aNH9fX1Xq/XaDSyLCuVSgOBAAAADMNoNBoQBP1+v1gslkgkkUhk2rRpjx8/bmlpOX78uN/vx3E8FArxPL948eK0tDSfz2cwGCKRiEgkAkFw06ZNX3311axZs86cOdPZ2fnixYuurq5IJILjuM1mi4qK6u7u1ul0LpeLZVmxWBwOh2NiYiKRiFQqvX///jfffLNmzRqO465fv+50OjEME4lEz549a2hooCjq+vXr8+fPdzgcZ8+eXbp0aXFxcXJyMsdxPM/LZLKsrKyGhoYpU6Y8evSIYZiRI0fW1dWJxWIQBKOiomAY9vv9LMuKRCJBEDAMi4+PBwDAZrOhKDpt2jQQBPfs2TN58uQBAwaADQ0N06ZNq6io8Hq9er2eZdnY2FiLxRITE2OxWCKRSEJCwrRp006cODFjxoxXr17RNO17w2g0hsNhiUSSnp7+8uXLQCCA4zhN06tWrRowYMCcOXM++eSTP/74w+Px7Nq1a8OGDRkZGfPmzfv555+joqKsVqtarRYEgeM4iURCkuR7773X2NiYlZVFEMSUKVPkcvnz58937dqVmZnJ8/zjx4+HDBmSlZV19uzZSCQyefLkkydPyuXyRYsWDRs2rLKyMiEhYejQoRiGaTSa8+fPT506FQCAMWPGAADA8/z27dt/++23uLi4cDg8Z86cpqYmCILEYjFJkgRB0DTN8/zRo0eTk5OzsrIUCsXJkydfv36tVqs//fRTh8Px+eefHz161GazQRCk1+sBAJg9e/atW7ccDgfHcQkJCQzDWCwWk8kkk8k6Ozujo6M9Hs+IESMeP34cExNjs9keP358//797u5urVabnZ3tcDjAM2fOWCwWo9GoUqmcTue8efOampp4np8/f34gEKisrARBcO3atV9//XV8fDzHcVar1WQyQRAUiURUKpXD4cAwjOM4FEUFQbh7925DQ8OiRYuGDx/OsmxfXx8AAHFxcb29vVKpVCwWz5s373//+193d3dCQoJcLmdZluM4DMMmT56sUCjq6urcbvfZs2e7urq0Wu3ixYtBEBw/fvyLFy9IkmRZdv78+U+fPkVRNCsrq7Ky8tatW21tbaFQiKZpuVwOQRDDMAqFgqbpDRs2hEKhkpKSw4cPQxCEIEhRUVFlZeUnn3zy66+/oihKkiSCIARBGI1Gq9VaXl5eUFCQnJyM43hjY+ODBw+qq6vLysoyMzMJgpg9e/bjx4+7urrCb4hEIgAAioqKKisrV6xYUVlZqVarzWZzbGys2+2OiopiWTYYDCYnJ9tstra2tsbGRqlUeufOnYyMDAAATCYTuGLFioMHD549ezYQCEgkkkgkgmGY0+lMT0/PyMgwmUy7d+9euHDh9evXaZoeN27c2bNn4+LiMAwjSXLixIlnzpyJiorq7e01GAwul2vXrl2TJk3697//ffLkSRzHS0tLcRz//vvvIQh65513ampqli1bVlZWplQqg8FgKBTavn37f/7zH61Wy/P80qVLjx49Gg6H586du3Hjxra2tqysrCFDhmRnZz9//ry1tXX+/PlVVVXr168/evQoAADBYPB///vf69evk5KSBEHAcRxBkAcPHphMpvr6+tevX9M07fV6URSVSqUKhaK3t9fpdPbr149hGJFIxPP85MmT7Xa71Wrt7u6urq5es2aNRqPxeDwsyz58+LCtra2wsDA5OZnjuKysrOvXr4MgmJOTc+zYsVWrVh0/fjwUCkmlUp1OBwCAxWLRaDROpxNBEIVCQZKkWCx2u93t7e0tLS00TUciEYIg1Gp1cnLy+PHjwaioqK+//nr16tWnTp1av359RUWF3W4nCEIqlQqCAIKg0WhcuHDhoUOHSJLU6/V9fX0mk8nlctE0DYKgXq9HEMRiscTExJw4ceLZG5cvX16wYMGvv/76+vVriUSi1+vdbrdSqYRhePny5adPnzabzXq9PhgMQhCkVCojkUhXV5fRaATe4Hk+Li4OAIBLly5BEJScnAzDcHZ2dnNzcyQSMRqNfX19L1++vHbtGsdxUVFRHMcxDAO9cfny5cLCwm+//fbhw4eCIHzwwQc7duxIT093Op3hcHjq1KmvX7/2+/1Op1MmkxEEIZfLEQRxu93t7e3JycmJiYlZWVk3b96kadput2dnZ3d1dfn9frfbrVQqcRwXBEGlUuE4PmDAgFu3bs2fP3/Hjh0DBw70+XyTJk26e/fuwIED7927N3PmzH/++cdutwMAUFxc/Msvv3AcJxaLi4uLL168yLIs+OWXX44ePXrevHm7d+82mUxTp06tr68PBAKLFy+urq4Wi8UMw4jFYqfTKZfL3W63VqsViUQEQcyYMaO5uZkkyUgkIpfLc3Nzc3JyoqOjJ0yYsHLlykuXLgmC4PF4UBRVKpV2u10mk/l8vsTExHHjxl2/ft1kMrW0tKAoCgAADMNer1ehUEilUgiCIpGISCSaNGnS9u3bBw4cuGzZsgsXLpAkiaIo/UZKSkpeXl5iYqJGowkGgwiCiEQijuP++eefwsLCvXv33r9/3+l0ajSaUCjk9/shCOrt7U1MTIxEIqtXr96xY4dery8oKDh37hyCIAAANDY29uvXb926dQaDobq6ety4cTabLRQKPX36lGVZiqKMRmMkEvF4PDExMYIguFyugQMHtre39/X1ffDBBzU1NUaj8fXr14sWLbp69SpJkhzH8TyfmJgYCoX8fv+mTZv27NmzcePGAwcOKBSK3t5e8NixY4FAQCQSyeVyjUZDEERBQUF9fT1BEDzPS6VSjuOWLFly5MgRBEHC4fCkSZPKy8v/85//7Ny5MzU1taenhyTJkpISiUSya9cuv98fGxsrkUh0Op1UKp09e/Z3332n0Wg4jluxYgXDMH/88YdGo4mLi9PpdF1dXW63m+d5HMdzc3MFQRg4cGBbW9uff/4pkUhYlkVRdNiwYSiKVlRU8Dy/atWqK1eudHV1YRgWCAQuXbrkcDhIkpRIJNeuXcvNzcUwbO3atQzDZGdn19fXYximVqu7u7tlMhmGYV6vlyTJuLi4SCQCw7BYLA4GgxiGhUKhR48e/fjjj2VlZSiKUhQFAAAMw2KxuLS09ODBgxRFJSYm5ufn79mzJxQKGY1GkiT9fr/JZBo5cuQ333wzZMiQwsLCpqYmu90uCIJGozEYDP/888/q1auTkpJ27ty5bt26gwcPhkIhrVabnZ1dXl4OVlVV8TyPvPH8+fPNmzcfPXo0Pj4eQRCv1ysIAoZhgiBQFLVx48Z9+/ZxHOfxeGJiYgRBWLNmzc8//ywWiyORSGJiYl9fX09Pj0qlev/99w8cOMAwDIIgPT09/fr1gyCI4ziLxfLJJ59QFHXs2LGBAwcqlcpnz57BMIwgCEVRWq12zJgx9fX1I0eOvHfvHkEQUqlULpcvWLDg+PHjgUCgpKTk7NmzZ86csVqtvb29CILIZDKapq9fvz5x4sRgMJienp6Xlzdz5sy///67p6dn0aJF/fv3f/369dmzZ0EQNBgM7e3tMpmst7c3JSXF7XajKDpo0KDm5uaYmBiNRjNt2jStVvvtt99yHKdSqTAM8/v9crl8woQJDx8+DAQCAAD4fL7Y2FiPx9PT06PT6ViWDYfDDx486Orqeuutt1JTU+VyOYIgcrmc5/k1a9b89NNPoVAoHA7HxcU5nc64uDiWZUmSBM+cOZOTkxMVFVVeXj5mzJjm5maapkmSBACA53mJRBIdHW2xWFAULS4uxjDs/PnzS5cu/f3332fMmFFWVrZ161aFQtHW1lZTU2M0GocNG1ZUVPT69esjR474/X6v1yuXyxmGiY2Nff369Zw5c16+MX/+/NbW1lGjRl2/ft3r9crl8jVr1vzwww9arXb58uU//fSTVCplWTYpKSktLa2uri4cDqelpR04cKC3t9fhcEycOLGnpweCIEEQ6urqBg8erNfrg8HgkiVLUlNTKYpCURQEQYfDwbKsTqcTBIHneZFIlJ+fHx0dvW/fPhRFWZZFECQlJWXfvn2ZmZmbN2++cuVKJBJhGCYrK+v06dMymWzQoEFpaWmHDh1yu92xsbE6nQ6CIKfT2dXVtXnz5m+++UalUqEo2tPTo9PpRo4cGQgEQqHQ9OnTz549q9frMQwLhUJer3fmzJl//fUXwzAQBGk0mrFjx4IURV26dMnpdEYikQ0bNhgMht9++40gCIlEUlBQUFFR4fV6QRBEEEQQBI1Gg6LoO++8c/r0aY7jQBAkCCI3N7e5uZllWbfb3dbWVltbO3PmzIkTJ7rd7uzs7KtXryqVyi+++GLr1q0SiYRlWYIgVqxYcfz4cYVCoVQqbTZbfn5+RUUFiqIffPBBXV2dQqF4+vRpVFSUx+NZuHDhyZMnVSoVRVG///67z+dLTk4eNGjQunXr7t2719nZOXPmzCVLlpAkKZPJioqK4uLiAADAMAzHcQiCtFrtqFGjjh49qlKpfD6fSCSCIAgEQYqi5HJ5SUnJ2rVr//rrrxs3bkAQVFVVFRsbm5mZee3aNZFIlJ+ff+HChadPn7a0tDgcjqSkJJPJNHDgQI/HEw6Hb9++HYlElErl22+/HQgEJBKJUqmUy+UWi0UkEsXGxlIUxXFcXl7esWPHcBz3eDxRUVFKpbKrq2vUqFFgbW0ty7IAAMAwjCCI0Wh89uyZUqn0+Xw4jjMMI5FInj59mpiYCMPw/Pnzq6qqpFIphmEKhcLhcKxevfr+/fv19fV6vd7lcn3++ecDBw7UaDSrVq3iOA4EQUEQQBCMRCJisTgcDkMQFAqFDAZDKBTS6/U2m42iKK1WKxKJurq61Go1BEEajQYEQa/X297ePmDAgKKiouvXrz979uzo0aMVFRU//PDD9OnTQ6FQOBxGUbSlpeXJkyfBYDAmJkaj0fz++++bN2+eMGGC3+83mUw+n2/y5MmXL1/GcXzBggV//PFHIBBYu3bt0aNH9Xq9zWb7448/JBKJw+G4devWlStXGIZJTU0FAKC9vT0cDkdHR4dCoWfPnlVXVxuNRrFYTFEUjuMymezIkSNbt279/vvv/+///i8jI4MgiGHDhiUlJeE4fvPmzc7OzunTp9+7d4+iKI7jgsFgWlqazWbjeT4hIeHp06egVCqtqqqaO3duXV2d2Wxeu3ZtXV2dx+PZvHnz8ePHKYpSKpUwDDscDo7jkpOT29vbNRqN3++PRCKhUEgul8+dO7exsbG1tTU2Nvb3339/9OjRyJEjS0pKYmJivF5vTk6O0WjkOO7w4cOCIGi1Wo1GY7FYpFIpz/MEQVAUFRsbGxUVZTab09LSJk2atG/fPpZlo6OjI5GI1WpVqVSVlZUJCQm7d+9Wq9U//vhjfHy8x+Nxu91JSUmhUCgSiQSDwVAopNPpKIpyOBytra25ubk8z/v9fqPRaLfbI5FIXFxcX1/frFmzxGLx/v37N2/eLJfL+/Xr9/Dhw/feey89PT0tLY1lWalU2tLSMnjwYBRFZTJZfHz8t99+++jRIxzHYRi2Wq0qlQqCoJs3b27atOnzzz/fu3dvamoqQRAffPDBixcvjh07NmDAABzHMQyz2WwQBIEgSJIkQRByuVwikSxcuNDj8YA4jldUVAiCQBCEVqsVi8UWi0UulweDQY1GQ5JkSUnJ1q1bv/rqqx9//FEmkykUChAEAQAQi8U0TZeUlBw/fpwgCKVSefPmzYaGBhzHWZYdOnToO++8Y7PZEhISsrOzT5w4wTAMgiCxsbFer5fneZVK9fLlSwAABEFIT093OBwoii5fvrysrKygoECtVp88eRJF0Y6OjtbW1kOHDpWVlQUCgbVr14bD4SNHjgwcODAYDDocDqlUGolEGIZxOp0ff/zxqVOnpFJpXl5eVlZWfn4+juPBYDApKQkEQRRFrVZrOBxWKBRisbipqWnPnj0vXryIj4+/fv16//79Ozo6Xrx4MXjwYIqiQBC02+0cx3m93nv37tntdgiC5HI5y7Iqlaq9vT0pKWn69Okmk4nnea/Xu3Tp0sbGRgzD2traeJ73+/1paWk8zwMAIAhCXFycxWLBMKywsLCmpkYqlYLV1dUqlaqrqwvDMAiCQBCcOnXq48eP29vbDQZDZ2fnhx9+uGHDhrKysoqKCo/HA0HQ6tWr9+3bJ5VKxWKx0Wh8+fIljuNisXjv3r3Hjx8vLS3t6+ujKGr16tVyuTw6Orq0tHTPnj2LFy/euXOnwWBAEAQAgFAoNHHixPr6erlcPnbs2CtXrkgkEoPBAIKg1+sFQRBF0WAw6HQ6o6Ki7HZ7QkLC1KlTb9++7fP5IpEIx3Effvhhc3Pzs2fPEAQhCEIikRQXF//xxx8Yhq1du7ajo2Pnzp0ZGRkcx+E4TpKkVColSZJhGL1eT1FUWVkZwzALFy4cPnx4MBhsa2sbOnSo2WwOh8NXr16laRoAAIfD4fP57HZ7cnKyVCpF3ti5c+fHH39cUFAgEomWLl168ODBhQsXnjp1KhKJJCYmtre3i8ViDMMgCEIQxOv1YhgmCAIMw+FwmKKopKSk9vZ28MyZM3PmzNm3b59SqbRarTk5OT09PTabLRgMGo3GcDh869YtDMMyMzMLCgpOnDgxZ84cHMeDwWBzc7Pb7ZZIJCzLrlq1auXKlQ0NDS0tLZcvX+7q6qqvr09PTx81atTkyZP/+ecfkiT7+vqSkpLYN7xer8FgAADA6XRqNBqKolJSUqxWq0qlIkmS4zgEQXieX7x48e7du30+38cff3zu3DmHw5GYmBgOhxmGCYVCCILQNM3zfCAQMJlMfX19SUlJRUVFR48eXbhw4RdffEEQRFZWViAQkEqlWq22ra1NpVJFR0d7PJ76+vqysrLhw4dfuHChpaUlFAqBIDhw4MCrV69KJJLu7u5Tp06hKKrRaDwej1qtBkGQIAie51UqFcuyRqNx6dKlNE339PQkJSUZjUaKogoLCysrK0EQJAhCJpMVFhaePHlSKpX29vbq9XqXyxUfH+/xeEiSNBqNYGVlpclkYll22rRpNTU14XDYYDB0dHR4vd7k5OT29vZQKAQAwJdffhkKhS5fvtza2qpQKNRq9dy5c8vLy0EQjI6Odrvd3333nd1uFwRh+/btMpmMIIibN2/GxcWNHTtWrVa3tLTo9XqDwWC1WmUymdVq5TguJibG5XIhCKJWq+fMmbNv3z6xWExRlE6n+/TTT7///vvVq1ebzeaKiorU1NSXL1+mpqb6fD4AAMRicU5OjkQiqaqqomk6FAqNHTu2ra0tGAzqdDqRSETTdDgcvnfvXmFhocfjiUQiBEHIZLKCgoLa2tqXL182NDSEw2G9Xr9q1aqYmBgIgrq6utra2lJTU/1+/5IlS8aOHYvjuN/v1+l0gUCApmmRSKRUKtVqdUpKyqBBgzQaTU5OzqlTpyKRiM/nUygUMTExgUAgGAySJBkXF2c2mwcOHDh58uTTp093dHR89NFHcrlcEISDBw9KJBLw999/VygUFEUlJydTFIUgCARBfr+fpmmGYdRqNUmSNE0Hg8ENGzbExsZu375dqVQiCOLxeFQqldvtZhjms88+S0hIiIuLW7dunVgs7urq+uSTTw4fPtzT00OSpMlkgmFYpVKJxWKHw+Hz+aKiotxut0KhYBgmLi5u1qxZNpstHA7X1tZu2bKlpqaG47jCwsIzZ84wDAMAwPr16w8fPtzX16dWqzUazYsXLwwGAwzDVqs1JSWFZVkYhgmCCIfDNE2/99571dXV4XB4796958+fN5lMBw4cEAQBw7ApU6ZcvHjxt99+u3r16pQpU4qLi0UikdFofPLkydChQwOBgM1mU6vV+fn5K1asYN7QarU+n6+np0ckEiUlJWVkZEyaNCkYDEYiEY7jcnNza2trURRFEMTlcuE4rtVqvV6vXC4PBoPz58+XyWS3bt1yuVwcxzEMAwCA0WjkOA5UqVQHDhyAYXjRokXl5eU2m+3LL788fPiwz+eDIIim6UgkUlRUdPv2bY/HgyCIy+V66623nj59yvN8YmKiz+fbsGHDgAED/v7777Fjx86aNSs5OZmm6c8++2znzp39+/dvaWkpLi6uqKiQSqUpKSkdHR0IgvT19alUqq6uLpPJtGLFisbGRoqinE7nv//97/3796Mo6na7BUGAYXjmzJkXLlxISkp69eoViqIbNmzYt2+f5A2n0ymTySiKUiqVgwcPHj9+/MGDBwVByM/PP3jw4Jo1az799NPTp08PGjTo+PHjhw8fVqlUDMO43e6Ojo4XL14gCDJ+/PixY8c+ePAgLS1t5syZBw4ciI6OZhgmNTV1xIgRN27cWL9+vVgsbmpqKi0tHTp06KhRo3p7e6OioiZOnHjw4EG9Xp+amvr333+jKCoSiTweT3x8vF6vf/DgAQiCsbGxM2fOnDx5sslkYlk2MzPT5XJBEATDcCgUAufMmVNbW/vll18qFIpBgwbZ7fZNmzaVlZUZjUYIgtxut9/vD4VCNpstLS0NhmG32/3RRx9VVVVxHEcQxIcffjhy5MiOjg6VSgUAwLRp09LT03Ecnzlz5sWLFz0eT3R0tFKpNJvNnZ2d8fHxXV1dWVlZPp8PwzCJROL1euPi4rKysmpra5VKZXt7u06nS0tL6+7unjdvnkqlKiws3Lt378mTJ+VyuUKhCAQCLMvK5fKenh4cxyEIwnH87bffbmhoAADA6XQyDBMTE0PTNMdxa9eu3bhxo/6N2NhYEAQ5jps/f/7JkydBEHz69Gl0dPSAAQM6OztlMllBQUFtbW0kEpHL5d3d3RcuXHA4HHK53Ov13rt3r/CNnp6eQYMGgSBoNBrfeuuthoaGcDjMcZzT6Vy/fn04HMYw7Ndff1WpVBiGRSIRlmVnzpyZk5MjCILf7+/fv39+fj6Kok+ePAGtVuvChQtXr15tNBpHjRp18uRJnU4nFovdbvfmzZu/+eabFStW+Hy+srKy/v37R0VFvXz5cs2aNZ2dnVevXl26dOm2bduampqcTqcgCDAMDxo0aNWqVYIg8DwfDAZ9Pp9UKpVIJB6PB8MwHMdv3bp15MiR0tLSn3766eDBg2vWrLlw4QLHcQRBrFy58saNG69fv4Zh2Gg0vvPOO9u2beN5ft26dQcOHIiKivL5fAiCpKSkeDwenucVCsWoUaNomn7y5InT6WQYBsdxo9E4ZcqUw4cPIwgilUrnzJlz8eJFBEEoivL7/bm5uadPn+Z5fvjw4U+ePDEYDDabbcOGDdeuXevp6WEYhmVZhUJRVVXl8XjEYjFN0xAENTc3z549e9asWVKplKZpHMfVanUkEoEgiKIomqYFQdiwYYNEItm9ezeO4zzPRyIRqVQ6YsSIgoICGIaVSqVIJJo9e/agQYMEQfB4PGBWVhaO45999pnVajWZTC6XC4ZhiUSiVqspimIYBn7D6XTOnz//X//6V0JCgkajQRCEoiiWZevq6jweTzgcBgCAYRi5XJ6ZmZmfn0/TNEEQFoulsrLyu+++W7t27a+//hoIBFQqlcVi6e7u5jjOYDB8/PHHR48effvtt+/cuSORSARBgGGYYZhFixadO3dOKpWSJBkTE0PTNEVRDocjPj7e6/VOnDjx5cuXGIb19PSEQiGapg0Gg9frFYlEy5Yta2pqmjhxYnl5uUajKSwsrK2tJUkSBEGapoPBYHp6utPp1Ov1AACEw+GOjg6TycRxXHd3d2pqqsvlkkgk27dvj46O9vl8Op3uzJkz6enpAwYM2LhxIwiCNptNoVAIggBBkN1uVygUer0+JyenurqaYRidTuf1erhGqBkAACAASURBVHEcF4lEFRUVbW1tKIq63W6z2bxv3z4QBLVabWlp6YsXL8AhQ4bk5uZ+9tlnjY2N4XA4Pz//4sWLKIp2dXXhOL5q1aoff/wxOTlZLpf//fffly5d6unpmTFjRkVFxYcffnjlypUDBw5MmTJFJBKRJPno0aPRo0crlcrc3NyYmBgAANRqtdVq1el0Xq9Xo9FYLBaCIFavXh0dHX3o0KHe3t6kpKSCgoKysrLExERBEMRisdvtxjAMgiCtVms2m+Pj43t6evR6vUwms1qtDMPodDqWZXEcl8lkd+/ejYqKwjCMZVkMw1AUJUly+vTptbW1IAjOmDHj7Nmz+fn5jY2NarUawzCv12s2m5OTkydMmHDv3j273R4fHy8Wi51OJ4qiQ4YMefLkyatXrx4+fPj+++93d3cvW7Zsy5YtO3bsmDRpUlFRUVJSktVqRRAEhmEAAEAQDIfDYrFYEITp06efO3fO4/EgCLJkyZL6+voLFy58++23ixYtksvlFy9erKmpkclkHMchCDJu3DhwzZo1Cxcu1Gg0I0aM2L17t1KplEgkBoPBbDaDIKhQKAKBgFqtDoVCbre7p6fn1q1bvb29165dmzdvHkEQUqk0EAigKDpnzpzY2NjHjx+3t7dPnjy5X79+S5YsOXnypN1uBwAAwzCO4wAAUCqVBEFAEETTNI7jUqm0q6vr5s2b4XA4MTGxqqpq586der0+EomQb8ybN+/EiRMYhikUCrvdrtfrWZadO3duVVWVWq12OBwsy6rV6ri4uCVLluzatSsQCKjV6s7OTq1WGwgE4uPj/X4/hmESieTFixcajUYikYAgGB8fbzQar169mpCQAACAw+FAUTQQCBQUFFy8eJHjOIPBEAgEaJqGYdhqtTqdzunTp8+aNauiomLZsmU3b970eDwMw0AQVFBQcPPmza6uLpPJxDCM1Wo1mUwwDNfW1j5+/FitVufm5sbFxcXGxlosFplMFggEIAgCv/322y1bthw5csRgMAAAIJFIxowZ09DQwLJsVFTU69evo6OjCYLQ6XR+v18sFk+fPr1///46nS4SifT29nIc179//yVLlphMpt7eXgRBent71Wq1RCJZsWLF7du3zWazWCyWy+UOh4NlWZFIBMPw119//eGHH6akpLAsO3PmzKqqqi+++EKv10+dOnXw4MEymSwxMfHOnTvx8fGCIGRnZ//5558cxxEEEQqFpFJpYWFhbW1tOByWy+VFRUUnTpyAYdhmswmCoFQqVSpVIBBAEITneY7jRCKRRCJRqVQsyz59+lSv13s8Hq1WKxaLrVarRCKRSqWRSEQQBJlMBgCASCQiCEIqlbIsm5qaOnz4cL/fv2PHjl9//fXQoUMURWk0mmXLlnV3d587d06r1U6aNKmmpkYkEiUmJrpcLkEQnE6nwWC4evXq1q1bFy1adOXKlZ9//lmn0ykUCp1Ol56eXltbC27evHnx4sVWq9Xtdi9btozn+YMHD0ZHR5vN5o8++qiurs7lci1ZsqS2tlYqlXZ1dYEgeOLEiUuXLk2ePLmurm7WrFkZGRkLFizo7u6WyWQMw0gkkkAgoFAoHA6HVCplWfbrr7/+z3/+I5PJvF6vQqGIiorq7u4OBAJGozEUChmNRrFYzLJsV1eXUqkUiUQ0TYtEIr1eT5LkxIkT7927x7IsSZIoirrdbqlUajQau7u7+/fvD0GQxWKRSCQMwxAEgWGYXC6fPn16VVUVDMMGg4GiKAzDQBDEcdxsNlMUlZiYaLPZQqFQYmLiq1evwuHw1q1bd+zYgaKoVqudPn16WVmZVqtNTU31er2BQIDnebFY7HK5bDbbkCFDGIbp7OxMT09nWZZhGLFYzLIshmFerzc5OTkYDObn51+7ds3v9x89erS9vT0mJmbJkiUYhiEIYrVaxWIxBEHhcBhcsGABAAATJkyIjo7meV6tVjudToqiZDJZMBhEUZRhGBRFY2JiQBB0u93vvvsuwzBDhw4Vi8WPHj1avny5QqGYOnUqSZIwDH/44Yfvv/8+juPBYBBBEJqmGYZhWXbgwIF+v5/jOJVK5ff7k5KSurq6RCIRx3FqtbqwsLCmpsbtdjMMExUVpVQqAQBob2//97///d///jclJQWG4UAgIJFIcBz3+Xw9PT04jqMoKn6D47hIJPLPP/80NTUVFRW9//77+/fvj0QiIpFILBbTNC0WiwOBQFpaWnt7O4Iger3e5/NpNJrOzs7GxkaTybRr167z589HIhFBENxuN4qia9eura6uZll2zpw5R48elcvlMpmMpunk5OSnT5/GxMRkZmaKxeLr168jCMKy7Ny5c0+dOpWdnX327FmWZV0u18WLFwmCmDRp0rBhwwRBKCgoqKmp2b59e0tLS0NDA3j//v19+/b98ccfX3755ZQpU2AYTklJycvL27Jli0ajKSws/N///hcOh3me12q1HMelpaX9/PPPLS0tBEGMGDFizJgx27ZtO3jwoMPhoGkaAACVSoVhWDAYDIfDBoMhJyenvLy8pKTkm2++2bp1a1lZWSAQ+PLLL8vLywmCgGF4zZo1586d6+npkclkWq3W5/OBIMgwDM/zer2eZVmO40pKSurr62fNmlVVVbVx48Z9+/aJRCKSJBcuXBgTE7Nt2za1Wj116tR169ZNnjxZr9cjCCIIgsfjWb58+cmTJ71er8lkstls0jcoinK73TKZbMGCBW+//bZarT516tSJEycAAEBRtLi4uKqqCkEQDMNKSkqqqqoEQYiLi5s2bdr+/ftVKlV2dnZdXZ0gCFFRUWaz2Wg0kiTJcdy8efMuXrxIURSKom1tbeXl5fo3Fi9eHAqFlEqlIAgSiWT8+PEXLlwAL126ZDabm5qazGazXC4fOnRoYmJiamoqz/MSiUQkEvX19SEI4nK5FAoFhmHLli1799139+zZs3HjRrVaHRcXB8MwCII8z4vFYrvdrlKpbDbb0KFD58yZU1lZKZFIGIaZN2/esmXL9Hr9N998AwDAmTNnZDKZRCKx2WyCIDgcDgRBjEYjz/PBYDASiWg0Gpqm4+PjaZo2GAwIgtjt9nA4nJiYaDabBUFYsWJFTU3NsGHDHj586HA45HK5x+Px+XwKhcJgMPA8r1AoKIrq6OgYOHCgy+UqLCysrKw0GAyCIOj1+iFDhnzyySf3799Xq9U8z//111/btm176623PB6PUqmkaVqj0cyaNSsQCBw7dgwEwZEjR9bV1WVkZNjt9ujoaIVCEQqFaJqGYRgAgAULFrjd7urqaqvV2tXVpVAoOjo6Wltb9Xo9RVFr1qxhGEYqlU6dOrW1tfX58+cikQg8ceLEtGnTamtrDx8+7Ha7m5ubQRD88ssvR4wYIZVKFQpFd3d3Z2enXq/nOC4UCr311lsEQfA8LxaL4TdmzJgRiUSam5u7u7tRFCVJUqvV0jStVCpfvnw5aNCgzs7OQYMGHTx48M6dO16vd/fu3RAEyeVymUxmt9ubm5tv3769c+fOYDDodDrT09Pb2tqSk5O7u7u1Wq3L5Zo4caLZbFapVBaLxeVyqdXqcDgMwzBJkhs3bty3b99777333XffiUSilJQUn883efLky5cvQxAUCoUQBJHL5b29vSiKqtXqnp4eiqJ4nsdxvLy8HIZhiURCUZRSqdywYYPD4UhJSZk0aVJzc7PVatXr9W63G4IgGIYhCAoGg3q9HkEQEATHjRt35coVhmFQFGUYRqvVkiRps9kGDBiQmZk5fPjwqKgomqYfPnw4evToefPmRUVFaTQanuedTueWLVsqKyvBgwcPwm/cuXPH4XDIZLL4+HiGYTIzM0mSPHXqlNPpBEEQQRCapuPj4+fOnSsIglKp5Dhuw4YNe/bsiY6Obm1tlclkMTExfX194XA4FApRFIWiqFQqnTt3bnNzczgcPnz4sMViEQSBYZiJEyeOGDEChuENGzZkZmb29PQUFxcPHjxYo9GwLKtUKru7uyEIIkkSx/FIJGI0Gn0+n8vl6tevH8MwIpGor68vNTXVarUWFRVRFFVXV7dq1aqGhobi4uJ///vfd+7cCQaDTU1Nv/zyi0KhAAAgFArl5eUplcqysjKe58+dO2exWNRq9f3798eOHbt48WKWZWUymdvt1uv1FEVlZmbevXs3KSnJ4XAAAIBhGIqiCoWCJMni4uKysjKz2fzZZ5+dPXsWgqC+vj4IglJTUzmOGzFixBdffDF16tQTJ060tLTAMDxs2LCkpKSMjAyFQkGSpEKh8Pv94M2bN588ecIwTGJiIgRBDMMgCALDsMVi0Wg0MAw3NDTcuHHDaDReu3btt99+S09Pj0Qifr9fEAQYhpVKJUVRHMfxPC+RSBAEWbBggUwmE4vFPp9v9+7der2eZVlBEA4cOEBRFIIgjx49MhqN/fv379ev35IlS8xm87lz57q6unJzc7OysiwWi0KhKCkp2b9/f2lp6blz5xwOB8/zgiDk5+dLpdKamppQKDRv3rxr165RFEXT9AcffHDu3DmKogRBiEQiarV65MiR/fr1CwQClZWVIpHI6XRqNBoIgliW9Xq9s2fP3rNnT2NjY0xMjNPpHD169NSpU+VyOUmSfr8fhmG9Xi+RSAAASE5OttlsT58+xTBMoVAMHjz47Nmzy5cvP336NARBKpXq6dOnRqNx5cqVR44c4Xm+r68vNjZ25syZz58/7+joePDgwf379ymKUqlUUqn07bff1mg0EomkpKQELC4u/uqrr/r160fTdENDg9frVSqVCIJIJBKbzSaRSBiGaW1ttdvtXq/30KFDOI7X1NT09fXpdDoAABQKRWtra3x8PIIgPM+vWLECw7Bff/1VJBKZzWaxWLxixYqKiop//etfSUlJCoWCYRgIgtra2mJiYhYtWpSZmdnX1wfDcGdn5507dyZNmjRy5Eir1ZqcnNzR0SGTyZRKZXt7u0KhAEFQKpXK5XKapnt7e41GI8MwXq9XrVaHQqFRo0Y9f/7cZrNFR0cjCPLy5ctgMDhixIiRI0c2NjaOGjXqypUrCoViyZIl+/btW7Fixbp169ra2giCMJlMJSUly5Yt++WXXziOU6vV0dHRNptt8eLF165dIwiitbV1wIABDMNIpdLOzk6Kovr37x8XF8cwjM/nS0hIuHz58qeffnrs2DGe5ymKkslk8+bNO3HiRDgc1mq1FRUVf/75JwzDRqORoqjJkyenpqZqtVpw/PjxJEn269dv8eLFGIbNnDlz//79MpksEomYTKbu7m4AAAwGQzgcfv78eUxMjFqtbmtr+/jjj/ft2xcOhzUaTW9vL0VREARJJBKDwWCz2QAAMBqNvb29crkcgiCtVvvTTz89efIkKSnJ5XIhCIJhmMfjmTNnzuHDh0mS9Hg8z58/r6ysvH///urVqzdv3rx///5wOMyyrE6n8/l8cXFxHo9HEAQURRmGEQTBaDRmZ2efPn2aYRibzWYymRYsWHDo0CGlUonjeGtrq8FgIEkyEonk5eU1NjaGw2Gr1arVaq1W65MnTwiC8Pl8fX19s2bNWrx4cX19fWZm5uvXr2NjY7VaLUmSFoslISFBpVL19fUhCEKSZGJi4pMnT1QqVUFBQVNTUzAYLCoqunDhQn5+/vnz5wEAcLvdy5Yt27Zt26RJkywWi0gkys7Obm5uLi8vr66uzs7OhiAIBMHLly83NDSAOTk5Nptt+PDhRUVFLpcrOjq6ra2ttLQUgqCTJ0/OnTu3sbExPz+fpumqqiqn06lUKg0Gg0gk4nne6/WyLMtxnE6nYxgGRVFBEILBIEEQY8aM6evrI0mS4zin09nQ0MBxXDAYFIlEEASJRKI///zzxx9/jI2NXbZs2d69e1esWFFdXX358uXq6urvv/9eoVAkJCT4/X6WZTdv3rxnzx4URc1ms0qlSk5OBgCAIAgMw54/f86ybL9+/To6OgwGAwAAWq3WZrNJJBIYhimK0mq1Xq8Xw7C8vLza2lqCIGQy2ZYtW7RarVQqHTVq1IwZM0iSxN94+PChVquNi4vz+Xw4jvf19WEYJpPJcnJyrl275nK5FArF33//PWTIEIqiCgsLr1y5otPpaJq22WwMwyiVSrPZnJ6eHgwGVSqV2WxeunRpU1NTfX39nj17Ro8e3dzcPHjw4Nra2qFDh4KbNm1qaGgYNWpUYWGhSqVyOp3z5s27dOnSxIkTL1y4AEEQy7IwDBcXF584ccLn8/n9/oyMjPfee+/w4cMOhwMEQblc3t7ezrKsVCpVKpVerxcAAJlMJggCwzAqlaqlpaW8vPzZs2eZmZkOh0Ov16tUKpZl8/LypkyZEggEnE5nfn5+U1OTxWLp6+sbNWqUx+PJzMxsbW1FUbSgoEChUGzbtk2tVkMQZDAYEATp6uoymUw+n0+r1VosFqlUSlGURCLp6emZMGHC69ev33vvvV27dul0ury8vNraWr/fn5SUFAwGpVLp+fPn7969KxaLS0tLcRwHAGDlypUMw1y4cMHn80EQFAgEEASZM2fO48ePOY4bM2bMlStXcBwPBoMikSgYDBoMBgAAWJalaTo+Pj4cDnd2dr7//vvl5eUZGRl//fVXMBjU6/VWqxUEwYEDB3777behUMjr9UqlUgRBXC4XuGHDBqvVGggEVq1aJRaLIQhKS0trbW1VqVRutzscDuM4ThCEQqEAQZDn+YaGhl9++eXYsWPr16//6aefQBAEAIAgiE2bNp0+fbq1tVWlUmk0mo6OjqioKIfDkZSUtGPHDr/fH4lE9Hr92bNnZ8+eHQqFAoHAuXPnnjx5EggEWJadMmVKS0uL1WoVi8UGg6G1tfX//u//Dhw4EAqFYBg2GAwsy06ZMuX06dM8z8+dO/fy5cvhcJimabfbnZaW9ujRo5iYGI/HExMT09fXN3To0K6uLp1Ol52dfezYsaioqGAwqFKpPB5POBx+8eJFY2NjSUnJqFGjrFYriqIgCNI0HQ6HcRz3+XzFxcV37txJT09vbW11Op1KpRJBkHA4zPO8WCxubW1ds2bN2bNnJRKJ1+udM2cODMOnTp1avHhxRUWFTCbLzc29ePEiiqKvXr3S6XSLFy+WSCRDhgwBAEAmk0VHR6ekpIDFxcVOp3PZsmV6vT4UCi1atOjkyZMGg+Hx48cURalUKp1Ox7JsMBiMjo52v1FeXp6Xl2c0GtVqtcvlEovFGIa53e5QKIRhWGlp6bFjx2bMmKFUKsvLyzUazZUrV27fvk0QRHx8fCAQePDgwbBhw27evMnz/G+//fbRRx95PJ6kpKQzZ87wPC+TyVwu182bN48ePYrj+LNnz65fvx4Oh3Ecnz179pkzZ5YtW7Zz506lUjl69Og///xTKpWGw+H+/fvX19drtVqNRuP1emEYlsvlFEVptdpHjx6lpaXxPD9r1qxTp07p9fq7b+Tn5ysUCqPRyDAMgiAikYggCAAANm7cWFFRUVxcjKLo7du3LRYLz/OCIIhEojVr1vz3v/9Vq9UWiyU5ORkAABiGnU4nhmFerzcxMXHo0KF1dXX5+fnl5eUJCQkMwwiCEB8fX11d/ejRIwAASJIcP378nj17wGnTpo0dO7agoMButzMMM3v27KqqKhiGeZ6PRCIURSEIolQq1Wr1tGnTGhoa7t27d/nyZYIghg4dmpub63K5MAyLjY198uSJUqkMhUJJSUlut7uoqKiqqgpF0VevXp0/f14kEgEA4PF4ZDLZnTt3CgoKHA6HXq8fMGDAmDFjtFotTdN+vx9BEJqmMQzbvHkzDMNbt27t7OxMTU3NyMiAIGj06NG//fbb//3f/3322Weff/75pk2boqOje3p69u7dO3z48NLSUqlUyrKsRCLJycn55ZdfUlJSCILQ6/U0TS9YsOD3339XqVQEQTAMU11dvXTp0k2bNjU0NPT09IhEIqfTuXHjxoaGBgAAOI4jSTIUCsEwnJ2d/c8//yAI4vV69Xo9y7Jjx4598OCBUqk0Go0URT179iwcDqMo2tvb6/f709PTg8GgwWCgKMput0skEpFI1NraeuHChTt37kyYMCE5Obm8vBwcP358Wlra8OHDTSbTjBkzTp06tXbt2mPHjvl8PkEQIpHIihUrqqqqGIZRKpUikWjlypXx8fGhN95+++2CggKxWMyyrCAIfr9fJpO9++675eXl4XB41qxZBw8ebGpqevnyJY7jzc3NM2fO9Hq9PM8LgiCTyV6+fPn+++/v2bNn//79MAyTJJmamvrq1SulUunz+bRarUqlGjt2bE9PD4Zh//rXv3AcF4lEMpkMAIDY2Njjx4+7XC61Wi2TyXw+X0tLy8GDBymKCgQCJpOJoiiTyWSz2TiOC4fDq1atwjDs559/5nne7/efPXtWLBYfP35837590W/YbDYAAJYvX15eXj74jUuXLsEwTNM0y7IoipaWlt69e3fcuHF79+7leT4UConF4tbWVoPB4HA4xo0bl56e3tLSolKpPB6PRCKhKCoSiaxdu/bcuXN37typq6vTaDQikWjcuHHr168HR4wYIRaLMzIypk2b9t5773311VcoioZCIaVSSdP08uXLf//997lz596+fVuv1588efL69esoimZlZe3duxeCoPnz58+ePRvDMJqmAQCIiop6+PDhuHHjXr9+vWjRokuXLp07dw7H8YSEBBRFY2NjJ0yYsGTJkp6engcPHkyaNEkkEkVHR0+cOBF9g+M4DMM4jkNRlCCI6Ojo3Nzc8ePHEwQhEolIksQwbOLEiXPnzjWbzQqF4sGDB06ns6KiYvDgwe+8887QoUMBACBJ0mazyeXykpKSmpoalUpVVFR08uTJnJyc48ePBwKB7u7u6upqrVbLMMycOXNMJpNarVapVFOnTv3pp5/69+8fDodxHO/r61Or1R6PRxAEkUgUHx9vt9v79+//7Nkzi8WiUqnMZnN0dLRWqwVBMBgMGgwGrVbLcVxPTw+O4w6Hw2AwBAKB1NTUmzdvnj9/PhQKPXjw4PLlyy6XC5w+fXokEgFBMDExMS8vD4IgQRDy8/OPHTuGoqjb7VapVAiCuFyuLVu2DBkyZNIb3d3d165de/jwYSQSSUpKmjp1KoZhNpstPj6eoqiVK1fGxMR0dHRUVVVJJBKO46KiosRicV9fn1qt9nq9v/32G8uyWq02FArRNN3U1HT9+nWLxTJ06NCnT5/GxcVZLJaBAwfa7fa1a9du2rTp4sWLPM9jGAZB0MqVK5OSkmAYHj169KlTpyKRyJ49ezQazfTp0z/66KPKykqRSATDsFwuX758+Q8//GC1Wo1Go1Qq7e3tVSgUUqlUqVRmZmYmJCRkZGSEw+G4uLgBAwZkZGSgKMqyLI7jDocjISFBIpH4fD4IgjIyMm7fvh0fHw9BkFwut9lsXV1doVCIIIjS0tKrV68aDAan0wlBkMFgsNvtarVaEAS/3x8KheLj4y0Wy6NHj65du6ZSqTZs2FBaWnro0CGQoqiPPvrIarXeunXrrbfeKiwsjIuLUygULpcLhuGoqKhr1651d3ffuXMHgqDc3NyUlBSz2fzf//530qRJd+/eHT58+IULF8Ri8ZEjR3w+37Zt23Jycnbt2nXz5k0URSORiFgsdjgcMAxLJJJFixbt37+/qamp9Y3hw4cLguD3++/du/frr78OGTKEJMmenp7Y2FiO4wiC0Ov1JEmiKLpr1y6v14ui6J9//vnFF1+MGTPG5XIhCNKvX7+nT58eOHAgFAplZWXl5OTgOP73339v2bKlurrabrcnJSV1d3fr9fpgMGg0Gh0Oh0ajUalUZWVlL1++RFFUoVAcPXp0yZIlwWBw3LhxJpMJBEGtVnvnzp2MjAyNRrNkyZLKyspwOEySZHR0NARBLMu2trb29vZqtVqNRiOXy1EUFYvFEomkt7c3N/f/OYIPsCgOhGHA02fbbF/YBRYERFFEscVYQVERUUFBBSv2mOh5X+KZyx+9xCR3ycUkxhj72RUjiIqggGJX7AUrSodle9+d2Z228z+P7zvj7t27BQUFt2/f9vv9XV1diYmJubm5Q4cOVavVEydOXLt27fPnz8Ht27eXlZXBMCwWi588eQLD8HfffadSqWJjY2/cuGE2m48cOTJo0CCpVGq32z/66KMdO3bs27evs7OT47h3795JpdL29vbOzs7i4uLt27f/+uuvMTExcXFxBEH09vaKRKJVq1ZZrdbTp0/HxsaSJMnz/PXr11+/fi0IAoIgAACcOXMmMzPz3bt3d+7ccbvdLMsGg8H4+Pje3l6O4+bOnXvq1Cmv11tXVxcIBARB0Ov1c+fOhSAIRVGZTHbr1q1r1675/f758+cTBDF8+PBwOOz1evPz83ft2oXjOEEQSqUSgiCKohiG+eabb37//fcLFy68fPkSgiCO4wAAkMlkPp+vX79+06dPj46OttlsVqv18ePHKpUqIyNDrVbL5XIYhseOHdvc3GyxWGiafvjwYb9+/ZYsWdLY2Oj1esPh8IQJE2pra9PS0nw+n9vtjo+PdzgchYWFIpFo6dKljx8/xjDs6tWrv/zyS3x8PLhs2bLXr19rNBqHw/HkyZNRo0YxDKPRaHAcd7lctbW1hYWFwWAQAACXy9Xa2jpv3jyGYeRy+bx580AQPH/+/IMHDwRBkMvlDx486OzsfPDggcfjgWF4zZo1586dCwaDbW1to0aNevz4cVpaWnp6+uPHj0tKSrKysioqKoxG46BBgyAIEovFw4YNS0tLE4lEJEm63e6+ffsWFRUdPXoUQZBRo0Y1NjZev379/v37r169Onv2LM/zUqnUbre/ffv27t27DMM0NjaWlZV98skne/bsEYlEoVAIRVGPx5OQkOByucRicV5e3qlTpzQaDU3Ty5YtS0xM1Ol0jY2NgwcPfvLkSUFBQVRU1IIFC/x+f0pKSk9Pz5QpU0aNGoXjuFKp1Ov1SqXSYDDAMIzjeCQSUSqVffr08b0fogAAIABJREFUgSBIEIRwOGyz2RAEycvLY1n23r17arWapumenp5ly5YdOHCgvr7+9OnTEyZMqKysbGlpefPmDTh27FipVHr27NmVK1fu3Lnz5MmTjY2N7e3tEASJxeJgMAhBEI7jLMs+efIEgqDNmzdfuXLF6/VmZ2ePHz/+1q1bz549CwaDsbGxa9eudbvdEonEZrPpdDqlUmmz2cRiMYIgFEWJRKI5c+YgCPLXX381NjY+ePCAoigIgsRiMYZhVqvVYDBcvHjxxo0bJpNJrVY7nU6JRKJSqTiOCwaD/fv393g8U6ZMSUtLW79+vfSDnJyc3377ra6urrq6+ocffpg0aVIwGGQYRqvVRiKRrq4utVptsViSk5MZhkEQhGEYBEFAEGxoaLhx40ZDQ0NJSQkMwwAApKamjhs3DoZhs9ksl8sVCoVSqSwvL29uboZhGEVRGIYhCLpx48a6deuSk5MJgigpKSkvLy8qKqqvr8/Ly6urq0NR1Gw2G43GYDAIAIDFYtHr9S6Xq6GhITY2NhAI5Obmut3uUCgEZmVl4Th+5cqVJ0+eBAKBYDBosVjOnDnj8/lAEIRhGEEQkiRhGC4vL//uu+/i4+MbGhpAENRoNAzDcBzX2dlJ03RCQsLixYsxDBMEAQRBGIZpmv773/9+4MCBYDCoUqkEQRCLxQAAOJ3OBQsWjB49GoKgqqqqWbNmRSIRsVgciUQaGxv/85//QBCUmpoaCATWrl174sSJ0tLSnTt34jgOw3Bvb+/hw4cfPHhQUVERExODIMjVq1eLioqWL18+cuTIMWPGiMXiQCAQDAa1Wm0gEKAoSqFQzJ49u6qqatq0aa9fv8Yw7OnTpxzHnTx5MhQK6fV6QRAcDkdqauqyZcsAAOA4DoIgkUj05s2bqKioW7duvXjxAgRBhUIBgqBEIsnMzNRqtQMGDGhtbVWr1QMHDrx48eLChQuPHj1aUFDQ0NCgVCp9Pp/T6dTpdAiC5OTkfPnll0ePHv3xxx9nz55dX19P0zQ4adKkurq6x48f+/1+l8ulVqtVKtW9e/fu3r3b29sLQVAgEIiJiaFpmmVZQRASExM5jmtpaYmKijKZTGlpaSiKms3mMWPGDB482Ov1arVav98vl8s9Hs/y5cvPnTtHUVQoFFq7dm1VVVU4HFYoFLdu3Tp79qxMJkNRVCKR0DTt8/kIgrh27dqxY8cEQRgyZIjT6YyPj29ubvZ4PARB0DTt9XoxDHv//n17e/vq1avz8vLcbvfBgwerq6sjkUhCQsLMmTNJklQoFCRJSiQSt9ttNBrnzZu3Z88ehULx9u1bEAQTExM5jhOJRL///rvL5RKJRHK53OfzGY3GwsJClmUxDFuxYkVFRYVOp+vt7a2trX369ClBEBKJxO12Dx8+PCEhYeDAgSKR6NWrV/379w+FQjiOC4Lg9/ulUmlCQkJnZyf/QWxsrNls7t+//7Fjx3bs2FFXVzdnzpwjR454PB5w3LhxJSUl48aNe/nyJfoB8sHXX38NgmBcXJzJZJJKpSKRKBwOAwCg1WoVCkUkEnn37h1FUePHj9+7d29OTk52dvbgwYODwaDJZBowYEBnZ6dYLNZqtSqVqrW1FUVR8Qc9PT0ymWzixIlKpTInJ4eiKI7jdDqdw+EQi8UTJ07cvHnzX3/9xXGcSCSKiorieT4SiSxdunT79u1ZWVn3799fs2bN//3f/8lkssTERIIgpk2bJgjCgAEDnj179vSDrVu3/utf/5JIJAAAuN3u6OhoGIZpmg6FQkqlUiwWMwyDIMjt27efPHlCUZRGo/F4PC9evMjPzy8sLGRZFgAAGIZ5nl+yZMm2bdvOnz/v9XoxDGNZduzYsQMHDtTr9TAM+3y+JUuW1NbWtrS0xMbGIggSiURompbJZCAIAgCwYMGCmzdvdnV1rV69euPGjUOHDgVBEEVRhmHA48ePIwgCgiAMw+vWrfv++++1Wq3D4bh8+fLJkyfz8/MdDodWqwVB0GAwvH//Xq/XDxgwwGKxdHd319XV/fOf/0xISPjiiy8IgigrK5s8efL9+/eXLl369ddfIwgCwzAEQYIg6HS6zMzMQ4cOzZs378qVK3fu3Pn+++9zc3NdLpdKpYIgiGEYlUo1bNiwn3/++dSpUxzHSaVSmUzW3d2NYZhKperu7lar1ZFIhCAIh8OxbNmy3bt3q9XqY8eOdXV16XS6+/fvV1VVeb3euLi4Z8+eSSQSQRBEIpFEInE4HDiOoyg6Z84ckUj0v//9jyCItra227dv19TUjB07ViwWjxgx4u7du8nJybNnzwZB0OPxfPrpp+fOncvJyRk1ahT2AQAAU6ZMmTlzZktLC4ZhCxcuNJvNGIY9evTI5/ORJIlhGARBWq22tbWVZVmtVjtx4sSmpqanT5+OGzeut7fX6XQKgoBhGHjy5Emj0ejz+RAEIQjC7/ejKFpYWDhgwACJRHLhwoWPP/64p6enf//+FoslMTHx6tWrc+bMmTx5cmdn508//VRcXJyamnrlypV169ZJJBKn06lUKv1+v16vD4VCJSUlMpns8OHD2dnZV69eXb9+/ZEjR5qbm2/cuOHxePx+v1QqVSqVEAQFAgEQBNVq9fLlyz/++OMXL150d3cbjUav18vzvFar5TjO5XLJ5XKKooqKirZu3frVV19t3br1ypUrHo9n/fr10dHRCQkJra2tJEnK5XIEQTiOwzDMZDJ9/vnnNTU1aWlp1dXVSqWSIAilUmm322/cuHHz5s2YmBiWZTdt2mSxWMaPH19ZWalQKKKjo1Uq1bNnz65cuUJ+8ObNm4yMjOnTp6ekpKxZs2bnzp2rV68+ffo0SZJZWVk3b94EACAqKsrr9YbDYRzHaZrGMEwikYwdO/b169fd3d0JCQk0TQeDQYqiwBMnTsTGxjIMw/O8Tqd79+5dv379LBbLs2fPnj59ajQaeZ5XKBQ0TVssFqlU2tzcjON4bGwsx3Eoitrtdrlc/ujRoxcvXly4cMFgMAiCQJKkWCz2+/0wDM+YMePAgQMbN27cs2cPiqIkSS5atIhl2fHjx/M839TU9NFHH1EUFR8fT1FUR0fHtm3bcBzHMCwSieh0uhEjRhw7dmzVqlU0TUcikatXr1osloSEhPfv369YsYLneZvNNmjQoN27d8+dO7eiogIEQZIkEQTBcdxgMPT09EQikejoaIqicBxnWZYkSaPROHbs2NevX799+/bAgQMIggSDweLi4lGjRrlcrtra2n79+kkkktu3b7e0tEAQRJIkBEEoipIk2dHRceTIEa1WGw6HJRJJIBD49NNPT58+HQgEgsEgjuPTpk2TSCRardbhcOzatSsxMbG3t9fpdBoMhri4OAAA7Ha7xWIBb9y44XK5dDpdOBwOBoMYhnk8HpFIlJSUlJqaWl1dTRCESqWaMGFCQUFBR0eHVqtVqVS9vb2CIKSnp2/ZsuXrr78eO3ZsKBTSarUOh0Mmk4lEopycnOrqahiGs7Ozq6urQRAMh8Nisbi4uHjEiBFyuVyhUMAwbLfbURQNhUJSqZRhmDFjxsyaNYv+AACAxYsXHzlyRKPR9Pb2CoLA87xCoUAQRBCEjo6OqqqqO3fuDBw4MCoq6sKFCwAAXLx4kaZpDMNsNls4HI6KipLJZH6/nyRJtVq9efNmk8m0c+fO2bNn19fXi0SizZs3d3Z2jh8/PhAILFmyZNiwYRzHnTt3zmaz5ebm3r59OxgMejyecDgMQVAwGAyFQqNGjcrLy5PL5TabDUXR6Ojoly9fEgRhMBhQFHU4HGKxOCsrq7a2lqIolUq1YsWKhQsXvnjxIj09HcOwffv2lZWVURQFXr58ubW1VSaT9enTp6uri+f5QYMG9evXz+fzJSQkPHz4EATB6OjoQCDw7Nkzj8fzt7/9bevWrY2NjXK53GazBQKBV69elZWVhUIhlmUlEonX65XL5RzH6XQ6k8kkEoksFku/fv2AD06fPt3W1iYIglartdlsMAwDAACCIMuyKpVq9erV0dHRPp/P7XYXFBTU19dPnTr17du3LS0tBEFwHDd//vzy8nKNRjN8+PCSkhKv13vy5MlNmzbNnDmzuLj41KlTiYmJDMOwLGuz2UQiEY7jIAhyHEeSpNvtJghi9erVFRUVarXa4XBcu3btyZMn3d3dKSkpkydPXrNmTUpKyvnz5xsaGoxGo16vZ1n21atXly5dAgBALBbX1dVt2LBhyJAhOI6vXLkSQZDa2tpQKBQVFeXz+ViW9Xq9brc7JSUlGAyuW7eutra2u7u7qqrq3bt3NE2npaXNmjUrOzu7paUFjI2Nffv27bt37yAIMpvNEATpdLo3b97odDqVShUVFeVyueLi4oxGo1wu//rrrzdv3rxr165Lly6p1er29vZAINDW1jZz5sz9+/eXl5f/9NNPW7Zs6enpGT16NMMwJEl2dnampKSMHDlSr9fn5+e3tbVJpVJBEFQq1eXLl61Wa15eHk3TarU6NTV15syZdrs9EAgYDAa73Y5h2Lx585RKpVQq9fv9Z8+exXE8Jydn9+7dw4YNO3HixJs3bzweDwzDixYtSk1NBQAgHA6DIMhxnNvtTkhIKC4uPn/+vNlsFolECIKsX7/+008/TUlJWbp06fbt28vLyymKio2NHTduXJ8+fRiGUalUXq9Xo9GMHTu2oqICRdFAIBAMBtetWzd69OhQKDRy5MixY8cCAKBWqwVBgCAIhmGKooLBYFpaWmtr68aNG48fPz5+/PgjR46IxeJr1641NTWhKPr06VOapmtqagRBwDAMrK6uXrJkycmTJ8eMGXPnzh2LxZKSkkLT9P379z/99NOWlpZgMNjT09PR0fHvf/87MzNTKpXm5uaeOnUqLS3t2bNnoVDIbre3trYWFBRs3ry5f//+KSkpBw8eVKlULS0tSUlJbrd7y5YtLS0twWAwIyNDoVDIZDIcxwVBuHfvXmpqalRUlNPpLCwsnDlzZt++fWtra1mWXbt27bFjx1iWtVgsycnJJpMJhmGO4wiC8Pl8ffr0CYfD7e3t/+///b/hw4cTBMHzvEwmO3nyZGVlJYqiLpfrq6++qqio8Pv9Vqt1/fr1u3fvlkqlIAjiOB4Oh2NjY2fOnHn06FGHw5GYmPj+/XutVuv/YNSoUV6vNz4+vqOjg/ggOTl5//79jY2Nfr9/xYoVn3zyyb59++bPn9/Q0EBRlEwmmzp16unTpwmCQFF00qRJb968sdvtKIrevHlz586dRqMRx3GZTBYIBL799lsYhufMmQPa7fYnT57wPI+iaFtbW3p6OkmSLpersLDwf//7X0JCwtSpU7/55pu3b99aLJY5c+bgOO73+1UqlclkamxsBEGQYZjr16/HxMRkZGQYjUaGYfbv319fX9/U1ATD8JYtWxYuXNja2sqyLAAAjx49GjduHMuyMpmsvr4+Kyvr6tWrM2bMaG5uPnbsmNlsViqVfr9fpVL5/f7FixefOXPG6/UOHTr0xo0bcrncaDTabDYMwzQaDQiCv/32G8dx9fX1FEVNmDCBIIjc3NwBAwY0Nzdv3rx59+7dOI5TFIXjOEEQc+fO/eGHHwwGA4qiRqPR5XI5nU6tVrto0aLff/+d53kEQTQajdfrNRgMLMtCECSXyxmGCYfDCIKcOHGio6NjxYoVcrl8xYoV33zzTf/+/WUymc/nQxCkpaWFYZh3795t2rRpx44dRqPx+fPnwWCQZVkQBDmOa2pqSktLu379em1trcViAS9dugRB0Jw5cw4dOiSXywEA6OnpMRqNbrf77t27+fn5VVVVL1++5HmeZdnMzEyDweBwOLZv386ybFpaWiQSwTDM4XCkpqaGQiHmAwAAmpqarFarVqsdM2aMIAgPHjzweDwlJSUcxyUkJCiVykAg4HQ6e3t7AQB4+/at2+2urKyUSqVarTY3N7ejo+PWrVs0TVMUpdVqVSqVy+VCEISmaRiGSZLkeR6CoIsXL/b09IhEIrvdzvO8UqlkWXb06NGTJk0Kh8MkSYrF4oULF8bGxv73v//VarUej2fWrFlHjhxBUXT16tUKhaKysvLevXtpaWnhcHjChAnV1dVisZhl2UGDBr17904qlcIwHAgEtFrt9evXW1tbS0tLg8EgDMNut1ur1SoUitbWVrFY3N3dXVNTQxCE3W7X6XShUAgAAJFIJAiC1+ttbW212+25ubkTJkwYN24cTdOgVColSfLevXvt7e2RSGT9+vXV1dU8z7e0tBw/fnzt2rVer/fUqVOCIAAAQNN0JBKRSCTx8fEKhSIYDKIoCkGQ0+l8//49CIJGo9FqtYpEIpZly8rKSkpKVCpVJBIJBoM+ny81NXXcuHELFy6sqakBAACCoEePHslksoyMDL/fX1paGhMTs3v37lGjRh04cGDMmDEKhaK1tZUgCBAEs7OzpVLp+fPn1Wq12WxWKBSrVq1KT09nPxAEAcOwO3fuDBs27MmTJz/88MPWrVtPnDjBsmwoFBKLxcFgMBKJ9OvXr7W1VaFQOJ1OAADi4uImTJhw/fp1QRBgGHa5XFqtVhCEUCgkl8s7Ozvj4+NxHF+0aNHevXs7Ozu/+OKL/fv3JyQk9Pb2EgSBoihFUSzLisVirVa7Y8cOl8sFAIBEIkFR1Ov1qlQqmqZJkkRRFIZhtVp96dIlCILcbjdYW1sbDochCAqFQgzDsCyLomhSUtLp06cfPnw4ZcqUWbNm3bx588svv8zIyABBUC6X22y2sWPHrlq1Kisr65tvvpFKpUajcdKkSUePHlUoFKWlpYWFha9evcIwTC6XYxhmsVhUKlV6enp2dnZ0dDRJkpMmTbp9+/bUqVP37t0rl8uLi4sFQTh//jzP8y6XS6lUQhBEUVR0dDRJkhiGdXV1JSUljR079uLFi+np6S0tLZ9++ul///vfW7duvXr1qqWlZdCgQW63+/nz5+PGjZNIJBkZGSNHjtRqtSiKWiwWEASlUqnT6bRYLC0tLfn5+TNnzjxz5gwIgjzPC4IQDocBABCJRAAAfP755zabraqqavz48VeuXMnLy4Nh2O12X7t2TaFQWK1WuVzOMAwAACqVimVZvV7v9XonT55cUVHR0NDgdrtpmm5oaHC5XPn5+YIggCDY2Ng4ZMiQoqKimA/S0tLA5cuXT548Wa/X+3w+juMIgujTp09nZ+fPP/9869atCRMmxMbGxsXF8Tz/008/rVmzxmQy8Tw/d+5co9FoMpkWLlx4/vx5nufFYjFJkgzDJCYmdnZ27ty5U6FQjBw5MiEh4caNGzNmzOA4LhwOx8TERCIRAABKS0urq6snTJhw6NAhGIb79u3LsqzVasUwTCKRjBkz5uzZsxqNxuPxKJVKv99fVFRUV1dHUVRSUpLVauV5XhCEO3fuPHr06Pbt2xMmTFCr1cFg0Ov1SqVSAAAqKio2bdqE43h0dDSGYWazuaWlJRgMPnv27NSpUx6PJy8v7+bNmy6XS6vVer3eTz/99OLFi2azee3atYcOHSIIwuv1xsbGzp07t7KykuO4YDDY09PjdDq/++678+fPh0Kh/Pz8mpqazz//fPfu3RRF0TTt9/uvXLlC03RTU1N6ejoAABiGhUIhnucHDx48c+bMcDjMsmxxcTE4Y8YMDMMGDhw4evToyZMnNzQ0qFQqn89XWFhI03RxcbHJZAIAQKvVsiwrFot7enpkMtmaNWu8Xu/ChQvv3LnT09OTl5dXW1ur1+tZlg0EAiiKvnr1qqGhYcmSJUaj0WQyrV+/fteuXSAIGgyG3t7eYDBoMBikUqnH45FIJF1dXdeuXautrd26dSuCIPHx8TKZzOv1MgyjVCoBAJDJZCKRyGKxoChqtVoHDBgQDodFItGOHTtMJhMMwwAAsCybkJDAsqzVahWLxSRJIggSCoUgCLp69Wp+fv7p06fz8/PFYnFzc/O+ffuUSmV7ezvHcUql0u/3AwBgNBp9Ph/HcXK5PCMjQ6VSNTQ0uN1uiUSSlJQ0bdq0ESNG0DTd0NBw9OjR9PT0trY2EAT79OnT3d2dkpLS1tYGw/Dly5dbW1slEgnLshKJJBwOu1wuvV5fXV1dVlbm8Xi2bt36+++/g7NnzyZJUi6Xa7XavLw8u92+adOm6upqkiTFYrHf7xeLxdu2bbPZbBqNRi6XOxyO8+fPx8bGlpeXcxwHw7BIJJoxY8bJkyelUilJksFgMCYmBgTBt2/fKpXKNWvW7Nmzp7S09NatW11dXRKJJCoq6t27d7GxsRzH2Wy2BQsW/PDDD5cuXXrx4sXQoUNjYmLmz5+P43hycnJzczP2QSQSEYvFFotFJpNRFAWCoEKhWLlyZf/+/VmWxXGc53mv14vjuEKhCIfDWq3WbrdHIhEEQTAM8/v9GIZptdquri4IglauXCmTyT777LOjR49+/PHHt2/fFolEEASRJCmTyQAA6Ojo6Nevn8/nI0ny73//+6FDh3AcP3Xq1PPnzzUajV6vX7lypVKpZFnW4XB0dXUNGTLE6XRiGEbT9OLFizMzM3mehyAoEolcuXJl2LBhEydO1Gg0qampMAxzHJednQ1Onjw5HA6/ePFixIgRgiB8/PHHu3fvPn78+IQJE+7cudPb2xsfH3/ixInff//94MGDv/zyS3R0tF6vnzt3rkwmAwAgOjra4XCgKCoWi6dNm3b37l0YhjMzM8+cOaNQKDweD0VRXq/3iy++OHHiRHZ29uXLl2EYLioqOnLkCIqiIAiKRCKz2VxVVeXxeAAAYFlWo9HcvHlzy5Ytffr0wTAsOTl5yJAhd+7cCQaDfr8fRVGVSoXj+N69e9va2hiGEYlEIAhyHIeiqEQiYRgGBMGamhqVSrV06dLnz59HIhGFQnHv3r1hw4Y5HI7c3NzS0tLHjx8PGTIkNjb22bNn2dnZt2/f9vl82dnZqampUqnUbrfv2rWLIAiJRGK32xMSEmpra69du6ZWq+fMmaNQKJRKJUmSVqs1Ojo6HA6DIJiSkuLz+a5evfrgwQOZTAaCIIIgwWAQw7BIJJKamqrT6fr37w9BkNvtBpcuXep0OlEUra+vHzdu3N///neDwTB8+PD6+vpwOCwIwpgxY3bs2CGVSj/66KNnz56dPn0ahuGMjIzRo0eLxWK1Ws2ybCQSaWpqIggCBMG///3vGzduPHnyZHx8PMMwo0aNGjRo0MCBA81m88qVK91ud1VVFcdx4AcMw7AsW1pa+uWXXzY2NqIoyvM8TdMsy+I4PmbMmDlz5uTl5e3fv99isSQkJPj9/uTk5GnTpu3YsWPDhg1xcXFyuRyCoPr6+qKiIpfLBUFQTExMWVmZ0+l8+/at2+3es2dPMBj0er2tra2DBw9OT08/d+7cb7/9JhKJQqHQunXr4uLifv/9dxiGPR4PgiAKhUIsFr9///7zzz/fu3evXC6fM2fOwYMH58yZM3v2bJ7nL1682NDQEB0d3dnZiaKoRCJhGAaGYZIkaZquqalxuVx1dXXTpk2rra1VKBQWiyUrKwvHcbFYzHHcRx99lJaWBtI0jSDIokWLHA7HyJEjp0+fDgAASZJqtdpsNq9aterChQtmszkmJoZl2aqqqrq6OrVaHQqFWlpafvrpJ7lcHhsb63A4cBxfsGBBWVlZdnb25MmTGxoaRo8eLRKJhg8fPmHChDVr1uzZs0csFtM0LXyAoiiCIDRNYxg2b968Q4cOLV68OCEhwWAwiMXiSCRy7NixlStXJicnx8XFYRi2bdu2vXv34jiOYRjLsk+fPl22bBmGYdOnT6dpWqlUCoIwZMiQlJSUoUOHut3ucDhst9tHjRo1adKk3Nzcp0+fvnz5ct++fSNHjhw9evQ///nPcePGURQlFouBDxiGSU5OtlqtXV1dCIJotVqpVNrb29u3b1+Xy+VwOKRS6c8//6xUKrOyshITExmGSUlJoSjK7/dzHNfR0fH+/fuenh6O465fv56RkYGiKIIgDMNIpVKO4yAIgmFYoVB0d3dv3LgR/Ouvv3w+38qVK6VS6cKFC4uLiwEAIAji5cuXWq1WpVKFw2G5XO52uyUSyZMnTxobG91uN8/zLMvOnTs3PT3dbDZLJBKO4yiKgmF49+7dBoOhvr4+JSWFIIipU6f2798fQZCZM2empaUdOHDA7/czDCMWiwEAMBqNbrc7HA6HQqGLFy9aLJZQKITj+JEjR+bNmycIQmlp6YABA8xmM4IgsbGxPp+PIIjx48cfOHAAAIBIJHL8+PFAIBAVFbVgwQKRSNTT05OWlpabm3v48OFNmzbt2LEDAIBgMNja2pqQkNC/f/9Xr17hOM4wzOrVqzUazf79+6VSqdfr1el0DMMoFIo3b97Ex8enpaXdu3cPRVEMw3ie5ziupKRk7ty57e3tM2fO7Nu3byAQkMvlKpUKQZA7d+40NDQEAgGtVjtw4MCWlhae5zUajUwmO3jwIE3T48ePp2maoqjRo0cXFBRYrVbwxo0bTqezu7v71atXBw4cWLly5fnz56urq0OhEAzDarXa6XSqVKpgMOh2u+fNm7dy5cr79+8zDNPc3Hzs2LFly5aVl5eLxWKJRBIMBkUi0d69e9va2t69ezd27Fifzzdu3LicnByKokKhkEajkUgkJpMpFAr5fL5ff/1169atCoVCrVZDEHT27NmnT58Gg0Gj0UhRVFRUlNFoHDp0aExMTH5+fnl5udlslkqlEomE53kEQVAUnTVr1qZNm44cOVJQUJCVlVVcXHzw4EGCICwWC4ZhIpGI5/mSkpLjx48rFAoEQdrb23Ecl0qlYrG4uLgYw7D29vaqqqp169YdOXIEQRCVShUOhymKUiqVTqdToVC8f/9ep9NJpVKRSETTdF1dXVlZ2c6dO6OiogAAyMnJqaqqKiws/O233yQSSVRUlEgkMpvNEAStWrWqtrbWYrFAEPTo0aO9e/cmJiaOHj16/PjxEokELCsrw3FcqVR2d3c7iYD4AAAgAElEQVSTJHnjxo2ysrLa2lrZBwiC2O12mqaLiorsdvvdu3cvXrwIgqBWq+3bt69Wq6UoimEYvV5vNpvD4TCCIAzDNDQ02O32nJwcq9VqNBr79u1LEITH49HpdLNmzdq3b59Op+vu7u7q6jIYDHK5HACA+Pj4hISERYsWpaenDxgwYNOmTX/++WdSUhJN0x6PB4IgDMMYhlEqlaFQyOv1siwrFoshCPL5fNevX09OTt66dWt5eTkIgjAM4zjucDhwHA8GgwqFIiYmZsaMGdu3b9fr9TAMkyQpCIJMJjOZTDRNNzQ0DBs2bN26dXV1dRzHRUdHO53OL774Ytu2bRs3btyxY8e0adMePHigVCohCDKbzW1tbePGjXM4HCKRyO12AwAgEolwHLdarQaDYfbs2RcvXsQwrKmpSSQSqVQqGIYFQZg/f35qaiqO4zU1NRcvXgTr6+shCMrLy6utrV2wYMHy5cv/9re//fvf/962bdu9e/fcbjfDMDiOSyQShmFgGH706FFmZmYoFGppaRGLxbGxsStWrDh27JjNZtNqtTNmzLhw4UIkEnE4HCiK6vX6jo4OgiAEQUAQJCoqimXZgoKCU6dO+Xy+2bNnnzhxgiAIlUqVnp6uVqs5jnv16pXFYmFZFoIgsVgcExPT2to6ZcqU58+fWywWpVIpkUhoms7MzGxoaPD5fPHx8W63OxQKicVik8m0YsWKu3fv0jQdCAT+9re/nTlzJjs7+8yZMxAEOZ3O5OTk2NjYx48fiz+AYXjKlCmZmZkEQSxatAiGYRRFXS4XDMORSISiqEgkEhMT4/P5BEFYsGDB06dPH3wwevRoi8Xy/fffHz58GIZhQRBQFCUIIhQKYRi2ePHiioqKMWPG3L17FwAAkiQLCgq2b99eX1/vdrtVKhUMw2BlZSVN03K5fPjw4W8/OHXqFIIgU6dOHTFihFQq7ezsjIuLAwAAgqCurq5IJKLT6ZYtW+Z2uyORyO7du/v27evz+YLBoFwuF4vF2dnZFRUVDMPAMIxhmNvtbmtrS01NlUqlKIpiGKZSqaxWK0mSAAAgCJKent7T0wNBkN1uJwjC6XSGw+GkpCS73T5z5ky5XH769OkNGzYcP348EolwHIeiqFKpNJlMarW6paWFIIi1a9f++OOPKSkpU6dOPXXqFMdxMpmMZVkMw7xe72effWaz2c6dO7dx48ZffvmlX79+3d3dHMe9fv06IyPj5cuXVVVVnZ2dJpPp2LFjMTExbrd7xYoVx48fnz179qVLl7xeL4IgGo3GbrcLgtC3b9/ffvvN4XBIJJJRo0YlJyfrdLrs7OyHDx/6fD6CICZOnHjjxg2GYbRardVq5Xl+7dq1f/zxh06na2xs7O3txXGc4zjwzp07gUBAoVC8evWqT58+LS0tn332mVqtHjRo0KRJk7Zt24ai6IEDB4xGI8MwI0aMOHXqVHx8vMPhUCqV06dPr6mpsVgsSUlJRUVFR48e7ejoSE1N5Xne6/UCACCTyerq6nieHzNmjF6vLyoqOnnyZCgUGj58uE6nGz9+/LfffothGMdxK1as2Ldv38yZMx8/ftzd3V1YWBgMBq9evbpkyRKPx3P58mW5XO52uyORCAiCEATpdDq3283zfDgcXrt27bZt2zAMCwQCcXFxSqXS4XCgKMqybHR09IABA6qrqxMTE10u17Rp02Qymdlsvn79OgRBwWCQJMmGhoaamppRo0ZhGJaWljZ69GiRSOTxeDAMA0FQEASfz5eUlPT69ev+/fvTNP3kyZP29vaRI0dCEEQQRHx8PI7jkUhk/Pjx169ft1gsxcXFZ86cmT9//sOHD7u7uymKkkgkAABgGCaVSimKgiAIPH36dExMTCgUYhimp6dn+fLlmZmZCoUiPT09IyNj1apVR48edblcMAzrdDqr1RofHz9jxoyTJ0/iOG6324cOHfr+/XuFQuHz+TAMAwAgHA5TFBUbGztt2jSGYbRa7YYNG9Rq9ZYtWy5duuRyuUiSHDhwYFZWViAQuHHjhtVqTU1NPXPmzIgRI2QyGc/zUVFRnZ2dpaWlhw8fdrvdCoUCQRCe571er1wunzdvns1ma25u9vl8ZrM5OjpaJpOFQiEIgpxOp06ne/v2bVFRkcfjsdlsAABoNBqn08nzPARBVqv1H//4x86dO0tLS/fv3y+VSjEMmzBhwvTp0yEIev78eb9+/TiOu3///rlz59RqdTgcbm9vT0xMVCqVwWCQ47iioqLt27f369dPLBYjCBIOh71eLwiCKpUqPT396dOnDMPY7fZPPvnk/Pnz+fn5586dE4lEFEU5nU6CIARBWLJkSSAQAPPy8vr27XvhwoVx48Z5PJ5gMBiJRPLy8vr16wfDsFKp7Ojo0Gg03d3der2eoigEQUKhEIZhCIKsWrVq//79BQUFlZWVy5Yt27Ztm/QDmUyG4/iLFy9UKhWKou/evfP7/cOGDZPL5dHR0Varddq0aa9fv7bb7StWrMjNzQ0EAg6H4+LFi7dv38ZxPBKJmEwmhUJhsViGDBnS3t4ul8vD4TAIguFwWKfT9fT0REdH0zQNw3BRUdHp06dlMtmyZcv++OOPrq6u6OhoCIL+8Y9/7Nq1SyaTMQxTUlJy4sQJhmGWLl166NChVatW7d27F8fxnJwcpVL566+/Hj58GMfxhw8fIgjyn//8x+l09u/fX6PRtLW1abVagiDmzZu3Z88erVZ78eLF1NRUuVy+cOHCyspKtVodDodJksQwTKFQsCwLguDatWvPnTs3YsSIixcv0jQ9bdq0q1evikQisVgMgmBhYeFPP/0ETps2DQTBy5cvZ2Zm0jQtEokePXr0ww8/DBw4UKVSeTwem82m1+tFIlFPTw/DMD6fjyTJoUOHOhwOhmG+/PLLbdu2URRFEERJSQlBEC0tLY2NjV999dXGjRsVCkU4HEZR9MWLFyaTKTY2NjU1NSYm5t27d16v98svv5w8eTLDMDAM+/3+qKioGTNmDB48eM6cOefPn3/x4sWmTZv++uuvuLg4j8dDUVQkEtHpdG63WxAEiqJgGM7MzKytrUVR1Gg0ulwujuOkUuns2bPLy8t5nlepVCaTSSKRcBwnk8m8Xq8gCBiGrVmzZu/evTzP6/V6q9VKkmR+fv6UKVMikchHH31UXFzs8/lcLhdJkgaDobi4uK6ubt68eb///jvDMPfu3Zs7dy4Mw16vd8mSJadPn46JiQFB0Ov1qlSqnp6egoKCs2fPikQiHMffvHnTp0+fzMzM4cOHnz59GsfxV69e6XQ6lUoFZmZmqtVqnuc5jjt27NjkyZOTkpJWrVq1fPnykydPkiTJcdzUqVPv37/vcDhwHM/LyysvL6coSqPRuFyuX3/99T//+Q8IgqFQCARBCIKmTp1aX18vCMKAAQPMZrPJZOru7vZ6vX369AkEAjiOf//99zzPf/LJJ52dnVKptKCgwO12P3/+vKOjw+FwZGdnJyUlLV26tLq6mud5tVotl8uVSqXZbM7JyenXr9+//vWvVatWHTp0iCCIrq6uzZs379ixIykpqb29XalU2mw2uVxOEITP50MQxO/3q9XqcDhcVFTU0NDQ3d0dExMzefJkAACqqqqkUqnP54tEInPnzh06dKhWq50+fXpCQgKO4zk5OQsXLvz44483bdpUVlaWl5dXWVkJgmBTU9OUKVMwDKMoSqlUWq1WmqZZltVqtTiOGwyG8ePHV1RUdHV1GQwGnucpioJhWKVS0TQ9c+bMXbt2KRSKTz75BJw2bRrHcR6Pp7m5OT09PRKJlJSUDB06lCRJQRBCoRCO4/PmzSsrK+N5XqlU2u12QRDmz58vkUhqampCoRDP88FgEAAAnucJghg7duy1a9dgGA4Gg0ql0ufzmUwmhmG++eabmpoaFEVxHLfZbFKpdMGCBfv27cMwLBKJ3Lt3LxAIPHjwwO/3f/TRR4MHDx44cODGjRt3796t0WjcbvfSpUurq6tfvnyp0+nmzZt3/fr1zs7OJUuW1NfXh0KhQCAwa9YsQRDOnj0rl8vNZnNycjLLsiiKms1mnU5XUlLC8/yOHTvUarVUKuU4ThCEzMzMy5cvRyKRurq6u3fvNjU13bx502w2O53O/v37v379ure3d8iQISzL/utf//rzzz9XrFixcuXKrKysyZMnt7a2jhgxora2VqPRmM1mnuc3b978xx9/zJ079+DBgziOy2QyGIbNZrNMJgNBsLu7u7i4uKGhwWAw2Gw2cMWKFQiCHDp0iOO4jRs3vnr1qqKi4tGjR3a7nWVZvV7f3d2tVqstFktxcfGFCxegDwwGg8PhCIVCMAwDABAIBMLhMIZhEonEYrE8efKEJEmpVKrRaIYNG/bpp59u375do9FERUXRNA2CoM/ny87OVqlUn332mcvlSk9Pv3v3rtfrFQQBgqCampply5apVKri4uJIJBIIBIqLi0+fPs2ybJ8+fdrb27Va7cyZM8vLyymK4nne4/FER0dLP2BZluO4/Pz8Y8eOGQwGBEF8Ph/HcQAA+Hw+FEURBOE4LhQKqVSqTz755MSJE2/evKmsrHz8+PHXX3/9zTffnD9/3uPxrFq16uuvv753757X6503b95PP/20d+/evLy87OzsRYsW9e3b1+/3MwyTk5Nz+fJllmXz8/OfP38+bty4yspKHMcJgnC5XDqdLhAIlJaWRiKRw4cPG41GAADa2toMBgNYU1OjUqlIkhw+fPjdu3f9fj9Jknq9nmEYAAC0Wm13d3dhYeGlS5domoZhGEEQGIYDgQCGYQiChEIhlmW1Wm1zc3NbWxsMw//73/9Wrlzpdrvfvn2rVCq/+OKL4uLis2fPhsNhkUhksVhEIpFarY5EIuFwuKenp6amJhAIgCAolUo9Ho9Go4EgqLKysri4OC0tbcyYMTExMQMHDqyrq5NKpW1tbRKJpKOjgyRJBEGGDRtWVFRUX1/v9/sZhgkGgzKZDEEQjUbjcDhAEFSr1QAAOBwOsVhMkqRWq7Xb7TiOIx9ERUU1f3Dp0iUYhqdOnRoXF0cQRFJS0rFjxzo7O4PBIIIgIpFo0KBBPp/v+fPnkUhk2LBhy5cvh2EYAACSJBEEsVgsOp1u9uzZR48eVSqVgiBMnjz56tWrNE2rVKqWlpaUD+rr6xUKRSgUUigU4OHDh7VaLQAAYrHY6XROmTLl1atXJEnKZDIURTs6OkiS5Hk+JiaGYRgAAGbMmKFSqb799tvNmzfv3r37q6++2rlzp8vlam1tRVE0LS3t22+//fnnn5VKZWZm5pYtW3bs2FFRUdGvX7/Lly8PHDgQAIAlS5b89ttvMAyLxeKEhISff/65paVFEASGYWw2m8lkwnF8ypQpXq+XZVme5ydOnJiRkREfHz99+vSff/65q6srKSmpq6tLJpONGTMmJiamqalJo9HYbDYQBKOiorq7u1NSUiiKam5uXrdu3Z49e3iej4qKUqlU4XB4/vz5e/fu1Wq1HMd5vV6e5+/cuXPz5k2lUjlmzJiPP/44GAziOB4Oh/ft20cQhNfrRRCkpaUlNTVVIpGEw+H79+8vWrRIo9EMHz48NjY2GAzSNL1ixYpTp075/f7Vq1efOHEChmG1Wu3z+Xp6emQyGYqigiBIpVIQBAVB4HkevHTpUigUEolEWVlZ586di4qKCgQCWq120qRJ9fX1FEVZrdakpCSTyWQwGKxWq0QiycvL2759e0tLy59//vnjjz/GxsZCEEQQBMuyq1atunz5cm9vL8MwOI7n5OScPHlSq9WKxeJAIMCyLI7jEokk8kEoFCotLS0oKIBh2OVyPXjwYMKECQiCCILgdrsxDCMI4vr160OGDFEqlVOnTk1JSYEgyGQySaVSEAQ5jsvKympqapoxY4ZIJPrrr78oigIAIBQKxcXF2e12mUyWm5t74sQJBEH8fj/LsiNGjHjz5k3fvn0pijKbzf/85z+3bdu2du3aoUOHUhRVWFiYlpY2Z86choYGk8lUXl4eDAZDoRCO4xKJJBwO3717NzMzEwTBQCAQDAb1en11dfXVq1cpiurfv7/T6RQEAQRBm81mMBjsdjsIgosXL/7rr78ikQhBEBKJpK2tDQRBvV4PVldXt7S0DBgwQCQSYRhGURSO4x0dHSAIRiIRpVLJMIzBYOjo6BCLxYIguN1uEATv3LkjlUphGKZpOicnx2q1pqam+v3+0tLSP//8Uy6XQxAkFotBEJwyZcq+fftkMlkoFBKJRH6/Py4ubvny5SdPnvR6vS6X6/PPPx87dizLsgiCBINBEAT9fr9KpYJhmKIojUbz9OnT0tLS3Nxcq9Vqs9k0Go1MJkNR1Ol0IghCkqTP54uLiyMIYtSoUZcvXxaLxW63G0XR0tLS3bt3EwSxbNmyYDB49epVv98fHR3d2dn5/fffb9u2jaKohw8fXr16Va1We73e5cuXDxw4kGGYUCj09u3biooKhUIRDoelUmkwGIRhmGGYuLi4SCSC4zhJkhAEVVdXL1269MmTJ3v37qUoyufzGY3GrKyss2fPLl68uLy83G63Dx48+OHDhwRBgCCo0+l6e3t5ngePHDkCw7Ber29ubk5NTZVKpQ6Ho6ury2AwgCDo8XiMRiMMwx0dHTiOOxwOgiBYlq2oqLh69equXbv0en10dPS0adN2794NAIDdbo+Ojs7IyBgxYsSxY8cKCgpu3brFcVxbW1tMTAyKogzDyOVysVjsdDpJkjx//rzNZguFQjqdLhQKyeXyQCDgcrlSUlKqqqpGjx4dDocnTpyYlZUVDocFQRCLxeFwOPRBYWFhWVnZ0qVLq6qqGIaRSqUajeb9+/dqtVoikfh8vkgkIhKJHA5HcnJyOBxOSkp6/fo1AAAQBKEoSlEUiqIWi2XDhg3Dhg0DQXDTpk0ymWzWrFlHjx61WCzz58+vrq4+cuRIJBKRSCQgCD569GjNmjUjRowYOHDgmzdvHA6HQqG4fft2e3t7c3Pzd999ZzAYZs+efeHCBZlMZjab161b9+OPP2q1WoZhEASJRCIYhiEIsn79etBsNjc0NBQUFNy6dcvr9arV6iVLlgQCAbvdDgBAY2Ojw+HQaDQQBLnd7qSkpPb2dpVK1djYiCCITCYbMWKE1WrNzc1taGjIzs4+cOBARkZGJBKx2Wx6vX769OmnTp2Kioqy2WxSqRRBEI7j/H7/o0ePaJo2mUxOp5Pn+efPn+fk5NTU1GRnZ4dCIQzDQqEQwzAYhkVFRU2fPl2j0XAcp1KpAoGAxWKJiYmx2WzBYFCn0xmNxtbWVrFYHB0dDYJgd3c3DMMkScbExBQXFwMAAMPwiRMnPB7P3Llzz5w5g6JoVFSUyWTCcXzFihU///xzeXl5fHw8DMO//PJLU1OTy+WKiop6/PixWq1WKpVPnjy5d+8eRVE+n0+v1y9dutRgMCAIkpmZ+fjxYwzDgsHgjRs3Dh48uGHDBrlc3tHRoVAoRCKR1Wr9448/zpw54/f7cRz3eDwSicRkMul0OgiCwMrKykAgIJFIIAjieV4QBJ7nAQDIzs4+f/48AAAxMTGCIAQCgWXLlp09e9ZqtcpkspaWFgiCMjIyvF4vCII8z9M0rVAoCgsLKysrI5GIQqGIRCI2m61fv37v3793uVzR0dEMw9jt9oaGBrPZbDAYOI4DAABF0WAwiCCIXC7nOK6iomLy5MldXV3BYHDixIl5eXmxsbHABy0tLYmJiT6fLxQKffnll2VlZYFAQCqV2u12EAS1Wq1IJPJ6vYIg5Ofn37x5c8GCBX/++SdFUXFxce/fv4+Li5s9e/a1a9d8Pp/X6wVBcPPmzcXFxTExMRqNZsuWLQsXLhw7dmx7e7tGo4EgSKlUNjc3q9XqUCjU1NR069atjIyMxYsXazSang8SExPVajVN0yzL+v1+mUzW3t7+ww8/vH79+sCBAwiCqFQqEAQlEkl+fv6VK1emT59eW1tLEITP5wPr6upGjhzZ29vb1NSEYZhMJlOpVDk5OZFI5PDhw2vXrj18+DAEQbm5ueXl5SzLymQyBEEGDx5869YtCIJYlo2KinI6nXK5PBwOFxUV3b17F4Kgjo6OxYsXX7hwITc398CBA3/99ZdarTabzQAAMAwjEolQFJVKpRRFcRwHgiBFUffu3WNZdvr06QAA8DwPQdD06dOzsrLa2tooioqJiZFIJFlZWUeOHAFBUPVBc3NzOBweOHAgDMMWiwUEwaVLl/b09Ny9e3fKlCkVFRVKpbK3t7d///5Op9PhcGzYsKG8vNzv95eUlFRWVrIs+9VXXx09epQkSbvd3tzc/PHHH8Mw7Ha7tVotwzAoirIsq9VqzWbz27dvnU7nypUrOzs79Xr9119/vWXLFpqmw+EwhmF+vx+CoG+//fa7776LjY11u91qtRqCoKysrAMHDojFYpIklUrls2fPtm/f7vf7waNHjxIEERUVBQAATdMURUEQRNM0SZJOp1Oj0UAQJJVKzWYzx3HJycnd3d16vf7kyZOZmZnR0dEURUkkEoVCsWjRokOHDnEc5/P5EhIS7HZ7bGzsqFGjoqOjV65c+eWXX+bm5kIQRBCEw+F49epVR0fHkiVLnE6nRCIJhUIoiuI4TlGUwWC4detWenr6s2fPzp075/V6e3t7k5OTMQxjGAYAgJKSkoMHD/bp06elpUUul/M8D0GQWCyWSCRWq1UQhNjYWBiGW1tb58yZc/v2bYfDIZfLSZK0Wq3r16+Xy+XHjx9HUVQQhEmTJj148MDr9aIoyjAMy7I5OTkPHjzw+/0bNmywWCyNjY2BQMDhcIjFYoqigsFgdHQ0RVEikYj6/x3BCVxUBcIA8HnvzTtm3ry5T47hVHEVy7zPilDRvAhQURHRPMAjrWy3dfOztjXbzDIzL3QNFBAwERAF8gTR1BJPBEHkGGDumTczb2be+f1+/v8UxTAMQRBKpTI1NfX27ds8zycnJ1+/fn3NmjVVVVUsyyYlJd24cYMgCLFYvGLFip9//tlqtf7222/Xr18HqqqqHA7HiBEj2traDAbDuHHjnjx54nK5QBCkaTo2Nvadd94pLCyUyWTQax0dHVevXnU4HLNnz5bJZFFRUUajUaFQcBzncDhwHA8EAna7XavVBgIBm802cuTIgwcPDg0NKRQKj8fD8zwMw01NTRzHpaSkiESia9euiUSiL7/8Uq1WUxQlCILb7b5z547ZbP7ggw8AAMjJybl161ZfXx/P8wiCOJ1OmUyWk5NTWloaDAaVSqVUKp0/f/6JEycgCMJxnOM4l8ul1WrD4bDT6dTpdCAISiQSl8vl8XiWL19eWVlpNBrdbncwGNTpdEuWLDl37tzMmTOrq6tFIhGGYV6vVyqVvnz5MiIiIjs7u7KyUiKRDA4OymQyuVw+duzYO3fugCCYkpJSWloqlUpRFA2HwxAEBQKByMhIQRC0Wm1KSsrBgwcFQUBRVBAEiUTCsizP8x0dHZ2dncBvv/1mMpksFguO47GxsdeuXcNxfOHChQ8ePAiHwwMDA1FRUX19fWq1WiaTtba2Njc3FxcX5+fnC4KgVCq///57vV5vsVhKSkrWrFlz8eLF2NhYi8UyZ86c2tpaiqIePnzY3NzMcRzDMBKJxGq1dnd3T506taamZvz48VKp9MWLF5s2bZo8eXJiYqLX6w0EAhAEPX369M6dOzk5OU+ePJk5cyZN04ODgxiGhUIhrVYLgmAgEPD7/QzDSKVSlmUDgYBSqQyHw3q93ul0KpVKh8MRGRnpcrlIkkRRlCCI7u5uFEUJgqAoimVZsVgMQRAAAGq1mmGYpUuX7t+/X61WBwKBnJwcjUbDsuyZM2c+/fTT77//XiwWu1wurVYbCASGDx/+4MGD6Ohoj8fj8/lEIhEEQTAMy2QytVr99ttvnzt3TiQSbdiw4dixYxAEud1ugiAyMzMrKytJkpRKpb///jsAgmB5eXkwGOQ4DsdxgiBAEOzr6wNBcN26ddXV1d3d3R9++KFard6zZ097e/vXX39dVlZmNptpmn7y5Mnly5d1Ot3ChQsNBkN/f//y5ctLS0vdbjdBEJs3b541a5bVaoUgSCwW63S68+fPjx8/Xi6Xoyhqs9kkEsmwYcOOHz9eXV2NYRjHcX6/n6KoqKioNWvWHD58mKIokUgEw3AoFDIYDF6vNyIiwuFwBAIBmUzW09MTExODomhubm5xcbHNZlMqlWvWrKmoqJg+ffrp06f1ev3Q0JBEIrHb7VFRUWKxOC8v7+zZsz09PT6fT61Wh0KhrKysq1evZmZmFhUVabXaxYsX//rrrzRNQxAkk8lwHGcYxu12e73enJyckpISgiDcbrdYLAZBUK1Wv3r1ymQy5ebmVlVVud1unuftdvtXX31VXFwcCAR4nl+yZMnRo0cNBgMMwzabzWg0ikSic+fOAU1NTVarNTo6OiUl5dixYyzL+v1+giC6urq0Wi2CIBEREb29vRiGNTU1KRSK5ORkpVIJgiDP83l5eTt37gwEAt98882uXbt27ty5Z8+e3bt3b9++vaamxmAw2Gw2uVwOgiCGYTRNBwIBqVR66dKlWbNmYRimUCjWr18fHR3tcrmA1wYGBoYNGzZy5Mi6urqMjAyZTPby5cuHDx86nc60tDQQBCsrKxEEiY6O7u7uVqvVNpvNZDLNmTNHLBaXlpYOGzbsxYsXgUBg3bp1tbW14XAYBEGGYbxeb3x8vN/vDwaDEATxPC9+bWhoKDExkaZpiqIwDHO5XAzDhMPhUCi0YsWK+/fvcxy3fft2i8Vy+vRpv9//559/oigaExMTERHhdDphGA6Hw3Pnzo2IiDh9+nR2dnZ5efmyZcuKioowDINhWC6X9/T0xMbGhkIhmqbD4TAAAL29vZ988glQVVXFMEw4HDYYDDAM22w2k8k0YcKEgoKCwsJCv9/f1NQEQVBycrJGozlw4MDYsWMpiiJJUqVS0et3AYAAACAASURBVDQNgqBMJrt8+XJjY6NMJrt+/fqqVatOnz69efPmx48fwzDMsizHcQzDAK8hCCIIQjgc5jjOYrGUlZU9e/YMgqCEhAQYhimK8vl8NputoKCgoqKCoqgtW7b897//BUEQgqBwOGwymViWhWEYQRBBEDAMe/HiRW9v71dffVVaWorjOAzDCIJ4vV6n04njuF6vb2trk8vlIpGIIAiKorZu3Xro0KFwOLx8+fLKykqFQhEREdHX15ednX3kyBGdTuf1eqOiorq7uwVBiI+PHzNmTENDQ0JCQktLS3Fx8ZQpU+Li4qKiogiCoCjK5/OtWLHi3LlzBQUFP/74IwiCPM8LgpCamtrS0kLTNI7j4XDY7Xbv37//iy++kEqlly9f3rt3L1BTU6NUKt9+++2zZ8/yPG80Gm/evFlZWSmRSObNmxcdHf3vf//bYrGUlJSkp6drNJqjR4/iOM7zPEmSsbGxbW1tkyZNunXrVklJCUVRERERSUlJY8aMkcvloVDI4/F88cUXn3766aNHjx4+fAiCIEEQ/GsAAFy4cMFgMPz888/jx49//vy5yWQaGBjAMMzn84lEIp7nlUpldnZ2eXn5li1b9uzZ43K5vF7vmDFj3G53MBg0mUwIgjx//txqtarVar1ez3FcXFxcMBgUi8V+v99qteI4LggCTdNxcXGDg4MMw0RGRgIA0NnZOWnSpMbGxpiYmM8//9zr9RYWFioUiv7+folE4vF4QBDkeR5F0U8++eTQoUMoij58+LChoSE+Pj4vL+/BgwdGoxHDMKfTGR0d7ff7MQyDIMjr9aIoqtFoRowY0dHRQb4Gw3AgEDCbzS9fvnS5XJcuXQoEAsDDhw/tdjtFUZGRkU+fPn316lV1dXVzc/OECRPeeeedOXPmdHR07N69u7S01O12KxSKrKys8+fP8zzPcVx/f//06dPv37+vUCiqqqo0Gs0777wjEolIkmRZliAIqVSKouj8+fPPnTt37dq1xsZGhUIRDAZv3rw5YcKErKwsqVQ6+7Xjx4+jKIrjeG9vr9vtjomJkUgkHR0dBoPBbrfr9Xqapl0ul9/vj46OZlk2PT398OHDSqXSarXa7XaNRhMfH48gSDAYxDCMpmm1Wh0Oh/1+/z//+c9vv/1WLBYTBNHe3g5BkNlsHj58+PPnz61WKwzDCIIwDBMTE0O+JggCCIKLFi2qra0VBMHj8YwePdput1dVVbW0tEgkkjVr1iQkJNhstkAgoFQqly1bdvTo0fj4eLfbnZGRceHCBfQ1kiS1Wi2CIL29vV6vNxQK1dbWCoJAkqREIgEuXbqkUCiGhoYUCsXf/va39vb2hoaG5uZmm8327NmzysrKcDiMYRjDMGKx2OfzSaVSlmVRFAUAgCRJGIYLCgrMZvOOHTs2btxYW1trs9lwHJdKpePHj6+rqyMIYnBwUCKRPHr06NatWyqVyuVyURQlk8m0Wu38+fM1Gs3KlSvPnj1LURRJkizLJiUlOZ1OFEX9fj9Jkh9++OG5c+f0ej3HcXa7PRwOcxwnEoni4uIAAOju7u7p6fn0009PnToVGRkpkUjGjBkTHR1dXl7OcZzf74cgaOTIkfHx8c3NzTRNB4PBmJgYi8Xi8/mUSuW6detOnDjhcDgoivrqq6+Kior++c9/ulyuvXv38jwfERFhsVhWrlxZWVl55syZ8vLydevWTZ06Va/XwzDs8XhEIhEMw9u3b9+3bx9FUVKp1Gg0WiwWEATdbrfdbtdoNCRJ3rt3z+FwBIPBcDiMoqjBYAAYhqmursZx3Ov1CoKgUqlYlq2rq7t27Vpra+vBgweVSiUIgjKZLBAIoK9FRET09fUBAKBQKKZPn97c3BwKhcaNG/fnn38KgjA4OLhgwYJ79+5t2LDh66+/ZhhGr9f7fD4Igk6cOMHzPI7jdrv9l19+KSgoUKvVWVlZOTk5ly5d4nk+Kirq2bNnGIahKBoREZGRkbF7926Koj766KMff/zxs88+W7VqVXx8/MSJE202m9/v3759e3l5udfrZRgGRVG1Wm21WimKSkpKmjJlSnl5eVpaWk1NDcMw0dHRPp+PZdktW7a8//77+/fvLy4uNplMoVDo448//vLLL0EQjImJef78OY7jKpWqq6trx44dhYWF+fn5R44c6evra2hoGD169NixY7VarUQiCYfDKSkpNTU1PM+73e64uDiv16vT6Z49exYZGfny5cuqqiqtVtvQ0LB69WqTySQWi3mehyBocHCwv78fOHLkCAzDRqPRZrPBMBwfH+/3+588eVJaWmo0GmfMmPGf//xHqVT+61//QlE0HA7DMIxhWCAQMBqNCII4HA6GYUKhUG5urlQqPXHiBIZh/f39crk8FAoplUqKonJyck6fPh0fH3/y5MnW1laTyQSCIE3T58+f12q1MAxfv369p6dHEAQMwziOGxoa2rZt26+//qpSqYLBoM/n27hxI4Igq1ev7u3tXbVqlSAIixYt+uWXX4YNG8ZxnNvtBgBAqVSSJInjuMvlIgjC5XJt3LixqqqKYRifz7dq1arCwsLGxsb29naGYTZv3gyCIIZhHMetWLGirq6OpmmXy7V58+aDBw8SBBEKhXieDwaDWq2W47iXL19evHhx5cqVGo0GRVGO4/Lz8w8fPrxmzZojR44IgiCXy71eb35+/sWLF+vr69va2srKyhQKxW+//YYgCAiCfX19KIrSNI3jeH19PVBUVBQbGzt79uyKigq/3z9jxowXL17MmjUrKSnpgw8+iIyMNJvNS5YsKS0tpSjKbrcrlcqIiAiLxWKz2WQymVarxTCsu7sbx3GtVku9tnr16rKyMpZlEQRRKBQ+n08sFjMMU1hYCEGQ1WpFECQiIsJqtbIsGwqF2traSJKsr69nGMZutxuNxmAwCEGQIAgQBMlkshs3bnz55Zdr1qyZN2+eUqm0Wq0QBCmVSpvNptPpKIpCEEQkEkEQ9OzZMxAEo6Ki1Gr1ihUrDh8+HAqFHA5Ha2ur1Wrt6uoSiUQmk6m6ujo3N7esrGzr1q06nU6lUhEE4fP5jEYjgiBer5ckSbVazfO8WCyGIOjEiRM9PT00TZ84caK7u1uj0TAM4/f71Wr1tm3b/vWvf+l0uv7+foqivv7667Vr13777bctLS29vb0AAOj1+r6+PrFYLJfLJRIJx3EWiwVoampyu90Gg6G7uxtBkFAopNPpmpubURQdNWrUokWLFArF/v377Xb7Z599RpJkVVUViqKhUIimaQRBeJ6HIGjkyJGRkZEqlUomkzU1NTmdTr/fTxCESCRauHDhmTNn5HL55cuXb926FR0d3d3dfePGjc8++8zj8VgsFu61efPmRUVFEQQxb968uro6hUIhEomkUmkwGOR5/sSJE6WlpTU1NWq1GkEQh8OxYMGCkydPrl27VqFQlJaWejwehULh9XqXLFmyceNGGIYnT5784sULlmWfP3/e2dkpkUhmzJihVqsvX74cCARQFHU6nWq1mmVZEATFYvGMGTMSEhICgYDP59u1a1dJSUkgEIBhuLW1tampyWq16nQ6tVq9devWvLy8ffv2+Xw++WtWqzU6Ovrq1asMw7x69WrEiBGjR4/etWvXTz/95PV6hw8f3tfXl56e3tjY2NnZuXXr1qKiIgzDgLq6uqioqHHjxp07dw4AAIZhzGbzgwcPSJLU6/WhUMjtdisUCpVKBUEQhmFut5sgCL/fD4KgSqUaHByMiop69OhRfHw8juMMw/T29prNZq/Xq1QqrVarRCLBMOzZs2cNDQ0XLlxIS0sDAGDUqFHvvffe0qVLi4uL+/v7v/vuu7i4uE8//XTTpk0//vijXq93OBzx8fF+v7+1tVUqlVIUJZVK4+PjnU6nWq1GUZSiqJycnMLCQgAA8vLyDhw4EBcX9/Lly6ioqNLS0sTExE2bNrW0tHi9Xo/HY7PZ/vnPf6IoWl1dXVtb29HRUVJSsnDhQrFYzHFcdHT09OnTIyMjpVIpAABtbW337t17/PgxQRA4jtfV1Y0ZMwaGYbFY7Pf7582bN378eBiG/X6/VCrt6+sjSbKtrc3pdAqC4Ha7V6xYkZiYyDDM3Llza2pq4uLient79Xo9x3F2ux0AAJFI9PHHHwM3btxob28fMWLEuHHjzp8/n5CQkJaWtmXLFgRBhg8fPm/evFOnTq1fv766unrBggU1NTUajaa7u5tl2cjIyHnz5v3www8QBIVCoVGjRgUCARiG+dcoiqqqqnrzzTftdrvb7d6/f79cLs/Oztbr9VOmTFEoFCzLEgSBIAgEQUNDQ11dXa2trSiKvvfee3K5XBAEq9Xa0NCg0WjWrl374MEDvV6P47jb7dZqtcFgMBwO8zwvCIJcLvd4PA6H48MPP7xx40ZKSsqNGzcmTZp06dIlnudNJlNPT49er7fZbIIg6HQ6n8+3atWq5OTk1tbWGTNm2Gy2lStXjho1yu/3h0IhCIK2bdvGMMy2bdseP37c3d3t9/t1Ol04HG5vb09MTDQYDCNGjBAEITk5WSQSlZaWOp1OjUbz+PHj0aNHG43Gurq677//Pioqyu12b926tbCwkKIoGIZ1Op3T6fT7/RkZGTdu3ACOHj0qEolomp47d259fX1ycrLT6dy0adMPP/wAw7DL5UpISLBYLH6/32Qyeb1etVoNQVAgEAAAwOv1qlQqEAQ5jvP7/Vqt1u12OxyOhISE/v7++vr648ePL1myhKZpGIZzcnIwDGMYRiwWm83m7u5uAAAwDON5HgRBlmWfPn3a2toKgiCO4waD4fr164IgzJs378033yQIgmVZi8USFRVlNBp7enomTpzY3NwslUqDwSAAAAzDrFix4tixY9u2bXv16tXdu3cnTJhQVVWl1+unTZv2+PFjBEH6+/tBEFyyZElFRcX9+/cbGxtVKhWO4+np6WKxmCAIh8ORmJg4derUcDhcX1/vcrmcTueff/55+/ZtvV6PouiFCxeSkpIQBImLi5NIJDKZzGazXbt2LTU1FcMwmqbnzJkzYsQIEARDoRDP8xRFRURETJs27cmTJ7Nnzy4vLwdBMBgMikQiYOfOnSiKms1mnudjYmJycnL27NljtVplr8EwrFQqOY5zOp0FBQXffPON2WxWKBR+v9/r9RIEIRKJ3G63VCoViUQKhaKvr0+v14MgCMNwaWnpwMCAy+Xyer1TpkzJycl5//33T5w4oVQqQ6GQVCp1OBwKhcLv95vNZrvdLpPJnj9/7nQ6W1pa7HY7x3EajWbkyJFz5swhSRIAABAE169fv2/fvjFjxjQ1NX388cf379/v7e395JNPXC7XpUuXZDLZH3/8QRAECIJSqXTp0qWHDh2Ki4ujadrtdjOvkSS5efPm4uLijo6O+vr6adOmzZo1i6KoYDAoFosNBoPNZmNZNjMzs7S0FMdxh8MxMDBw8+ZNl8slFos5jpNIJAaDgaKoqqqqhQsXIggyNDSk1WrLy8tPnz69evXqixcvIggCguCmTZu+//77cDgcExPz8uXLESNGCILgcrlEIhFQWVnpcrlYlu3p6dm7d+8bb7yRk5OjVqulUilFUVlZWZcuXaJpGoZhkiRZljWZTGvXri0qKgqFQqtXr66rqyNJ0ul0isXipUuXXr58efr06QqF4vz589dfU6vVJ0+ebGxsfPPNNx88eKBUKnme12g0DMMsXry4oqJiwYIFPp+vpaWF4ziSJBcvXnz06NH79+87HI7ff/99zpw5GRkZBoOB53mfz6dSqSwWi8FgkEgkK1eu3L9//4gRIwYHB8PhsFarffLkya5du/bu3SsSidavX3/06FGZTLZ8+XIMwyoqKkAQTE1NLSkpIQjC4XAIgvDnn3+OGzdOJpPZbDadTrd169ZffvlFJBKFw2EEQQKBAIqiGIbl5eXt3LmTJEmbzebz+WiajoyMPHfuXHZ29r59+2bPnu33+yEIoml6/fr1u3fvPnjwYDgcVigUHo8Hx3GKokAQFIlENE0jCLJ69ery8nLg6tWr7e3tOI7DMPz8+fMXL15Mnjw5OjqaIAiSJH0+n9PpNJvNCIKQJCkIAgRBCIJERkaCIOjxeKZNm1ZVVYUgiN1uj4qK8vv9YrFYrVZTFFVSUtLe3i6VSo1GY3p6ukQiQRDEYDA4HI5p06Y1NTXhOD4wMIAgiFwu7+/vj4uLCwaDPp8PRVEAALKysjZu3Hj48OHCwkKJRIKiKARBNE17PB6lUhkdHW21Wl0ul1QqdblcLMuqVCqaplEUxTAsHA673e5wOIwgyD/+8Y9AIFBaWip6DYbh5OTke/fuBQKBiIiIQCDAcdzcuXPv3r2bn5//97//nWVZiURiMBgsFotIJNJoNDdu3Bg5cuTmzZtFIlFRUdH27du/+eYbiUTCcVx2dvbUqVMdDofRaPR6vWlpaVOmTFGpVO+++25RUZFcLodhePbs2SAIHjlyhCRJuVwOw3BsbCxw4sQJn8+3cePGQ4cOTZ48+dWrV3q9nmGY9evXHzhwYPHixdXV1cFgUCKRLFu2rKSkhOM4GIZxHBeLxaFQKC0tTSwWnzx5UhCEUCik0Wh4nscw7NmzZ6dPnx42bNjEiRPHjh3LMAxFUatXr/7111/z8vJ+/fVXp9MJQVB8fDxN0xMnTqyrq2NZFoZho9E4duzYtrY2lmXdbndbW5tarR45cmRvb69UKk1JSbl69SqGYXq9vq+vTxAElmWXL19+6tQpmqY3bdp0/Phxs9lstVoxDPP7/aFQCACAyMhIt9u9bt26UCj0448/GgyGwcFBjuMiIiIkEonP56NpevXq1adOneI4Tq1WgyBIEITP5wNB8OXLl0NDQ999993//vc/j8eDoigIguFwWKvV5ufnnzp16q+//mppaaEoyuv1KhSK3bt3kyTpcDgwDAMAAEVRt9utUCgkEsnAwMBHH3108+bNwcFB4NSpUxqNJhQKBYNBtVotEolomvb7/SqVavny5RaL5cKFCyKRSC6XS6XSBQsWlJWV8TxP03T4tYKCgsrKyvfee6++vp4kSbFYLBKJFi5c+O6774bD4b6+vmPHjikUCpIkNRrN7Nmzq6qqDAYDgiCdnZ0oihoMBpIknU5nVFSUx+NxOBzjx4/v7Ozs6emJi4sTBMHtdiMIotVqMQx74403BEEoLy8fPXp0R0cHhmEQBKlUKoVCYbfbaZq22+2hUEj1miAIVqt127ZtRUVFW7Zs2b17NwzDAwMDiYmJEATBMPzkyZOurq7y8vJDhw7BMEzTdCAQ2Lt3r81ms1gsv//+OwRBMAx3dXW9fPly1qxZs2fPLi4uNhqNjx49UqvV//jHP4qKioaGhnQ6XXd3dyAQ+Oyzz9LS0qZNmzZ69Gie5x0OB8uyCQkJVqtVqVSuWbPm+PHj27dv/+WXX2iaBsrLy202m9Fo9Hq9GIZBEBQIBGiaxjAMx/HU1NS7d+9aLBYcx0UikUKhsFgsKSkp06ZN++WXX3w+H0mScrkcRVGfz4dhmEQief78eWVlpVKp9Pv9M2bMmDNnDoZhDMMAAPDWW28ZDIabN28+e/YsNjbW7/dnZ2ejKPrDDz8oXxscHERRVKPRWK3W2bNnl5aWymQyuVzOsizP83a73WAwiMVihmHmzZtXUVERCoWmTZvW09MTDAabmpqePn26YcMGv9/PMEx2dvbNmzdDoZDb7QYAAMfxYDDIcRyGYf39/V6vt7Gx0ev1fv755wRBLFmypLy83G63q9VqAABomhaJRPn5+UeOHOnv73/w4MGePXsaGhoYhlGr1eFwmGVZmqZnzpzZ1tZmsVjWrVt3+/bt/v7+ixcvajSawsJCm8129+5dl8sFgiCO48nJyQ0NDRERESiKer1ek8kEVFRUZGVlHT16VKvVulyuHTt2fPvttyiK4jguk8ksFktiYqLL5aJpOjo6+uXLl1KplKZpEATT0tIOHz78xRdfXLhwwWazyeVyGIZ9Pl8wGPz55585jnv06BHLso2NjcFgEIIgpVLp8Xj+9re/9ff3wzD88uVLjUYTCoWkUqnL5SIIwufzgSAoCILL5VIqldHR0TabbcqUKVeuXNHr9U6nMz4+nuO4ly9fGo1Gr9cLgiBN02Kx2Gaz0TR99uxZmqYLCgp0Op3D4dDr9T09PZ999tmRI0dAEKRpWhCEu3fvTpkyZenSpbm5uaWlpdu3bx82bFhCQoLH4zGZTIODg4IgrF+/ft++fbm5uRcvXuQ4rqSk5OnTp3/++ef58+c1Gk1OTs6vv/4aCoUkEgnHcbNnz4YgqKioyO12jxw5EgCAhoaGkSNHTps27fnz5xzHyWSyly9fms3mjz766PHjx3V1dVKpdP78+YDH46murvb5fCiKSqVSmqa3bNny448/hsPhqKgokiQdDseOHTs0Gs0333xjNBoDgQDP8+LXaJq2Wq3R0dESiYQkSa/Xu3bt2t9++62kpMRqtQIAEB0dvWjRIhAEYRiWSqU0TYMg6HK5AAAIhUJr164tLy9XKBSBQCAvL2/fvn0YhgmCMGLEiJSUlIqKCpIk/X6/SCTauXPn4cOHw+Gwx+NRKpUoihIEwbKsIAhPnjzZsmVLZGRkUlISBEGxsbGpqak6nU6tVnd0dBgMBpfL5XA4zGaz3W7HcZxlWRAEcRzfuHHj3r17RSLRrFmzDhw4EAgEQBB84403QBB0Op0ajWbFihWpqakWi6WlpeXUqVMqlYqm6b///e8+n0+j0ezevdtsNs+ZM+fcuXNisXjLli0//fSTWq2+ceOGx+N58803ExMTr1y5MmrUKL1eHwgECgoKVq5cuWjRora2NoZhgLNnz5IkKZVK33vvPY1Gc+TIEUEQYBiGIEilUjEMo9frPR5PVFRUUlLSH3/8oVarvV7vwMAAAAAqlQoEQY7jAAB49uyZz+ebOHFiMBjU6XTvv/++0WicMGFCcnLyf/7zH7FY3NfXd+vWLRRFbTZbIBCIj493u93hcFilUoEg2NfXp1AoBEFAEEQmk3Ec5/P5vvjii6NHj165cgVF0aioqB07dpSVlTkcDpIkDQaDzWbLz88/ffr0vHnztFrt+vXr//zzT47jWltb58yZc/LkyZycnGHDho0ePXr58uW3bt2y2+0URQUCgfj4eJ7nBwYGpFKp7LU//vijoaFh/vz5BQUFp0+fhiAoNzfXbDa/++67VVVV27Ztmzp1qkQiGRoaIkkSRVGxWMzzvEKh6Orq0mq1giCAIDhixIi+vr6Ojo5//etfGzZs8Pl8EREREokEBEG1Wp2ZmXn79m0Yhp1Op9FoBKxWa2Njo8vlkkqlbrd72LBhCxcurKioiIiIePbsmVgshmGYoqgNGzYUFxcbjcb58+cfP358y5Yt9fX14XD4b3/7W1VV1ZYtW06ePDllypS//vpLpVKlp6f7fL6zZ8/6fD6v1/vq1av33ntvYGAgOjo6NTW1tbW1s7MTgiCxWJydnV1ZWYmiKMdxNE2zLIsgCAAANptNLBZHRUWFQqHVq1ePHj06KytLp9NBEPTuu+9qtdrq6mq5XI6i6KNHj8xmcyAQMJlMxcXFT58+BUFQEIQHDx58/PHHKIrGxcXRNI1h2KJFi65cufLq1avc3NzKykqe50mSlMvlNE2zLLts2TK1Wn3mzBmbzZaTk2MwGCorK1euXHnixIlgMOj3+xcuXFhfXw+CIAAAmzZt+v777xMTE0mSHBwcjIqK8vl8MpkMQZCcnJykpCS5XP7q1avo6GiHw4EgSEtLy9dffz18+HAIglatWnXq1Cngf//738DAgMFggCBo5cqVVVVVwWAwKipKEASSJBcuXFhYWAhBEAAACoWCoqiMjIyjR4+OHTuWYRiPx2OxWOLj4xUKRXt7uyAISqUSRVGbzXb+/HmNRpORkXHr1i2v15uRkfHq1auEhITs7OzS0tK+vj6j0UhRlNVq1ev1fr8fgqBVq1a1tLS8evXKaDRCEGS1WmEYpmnaZrOFw+E33njD7XbjOC4IAgRBGRkZZ86cQRBEJBJptdq+vj65XO5wOMrKyjo6OuRy+cSJEydMmLB+/fqurq62tjafz8fz/AcffFBaWoph2Ny5c1taWl69emW329966y2O43bs2LF27Vq5XI6iKEmSMTExXV1dKpUKRVGbzZaQkNDe3i6VSs1ms9/v37x58969e1mWJQiC4zhBEObPn9/U1CSRSB4/fvzjjz9iGCYWiwmCoGm6o6MjPT190aJFGo2mvb2dIAgQBAGv13v06FGTyaRUKkEQFIlEQ0NDIpFIEASTyUSSpMPhUKvVCIKIRCIYhnmel0gkoVCotrb2/Pnz5eXlDMPMnTv3woULwWDQ5XKZzebnz59rNJq1a9cuXLiwt7dXoVD8/e9/FwQhJSXl/PnzWq02FArhOG61WqOiot5+++1z586Fw+H//ve/mzZtys/Pr66upijK4XCYzeZp06adOXPmo48+Ki4ufv/99+/cuePz+d5+++2mpiav17tx48bKykqr1arVamEY9vv969atmzJlis1m27Bhg0KhgCAIBEGbzWYwGCQSicvlstvtJpOJpmkAAILBIIIgK1asOHDgQFJSUlZWlt1uP3DggMlkAgAgHA6vXbv2p59+wjCsoKBg3759CoUCx/Hc3Nz9+/ebTCaapmEYttlsBEGkp6dfvHiRoii73f78+fORI0fu2bMnMTHR7/fDMLx161aWZaVS6erVq/ft2xcfHw+cO3eOJEm32200Gt1u9+rVq1tbW+12O8uyHMeFw2EURWUyWWpqKgzDZ8+eRRCkpaXl4MGDx48fB0EQhmGGYTiOk8vlIpGIpmmJROJ2uxUKhd/vX7JkycyZMzEMMxqN6enpSUlJ48aNoyiqurp67dq1v/766+LFiwsLC3EcBwAAgqCoqCgcx/v6+gKBQGZm5okTJ4aGhh4+fLh06dJQKAQAAAiCgiAYjcbOzk6RSKTVt48RQAAADRdJREFUaiEI4nl+YGDAZDLhr925c+f06dN5eXl6vX7hwoU1NTUqlaqvr0+j0SAIkpqaWlRUhGEYBEFDQ0MqlQoEQblcbrVav/zyyz179mRkZJSVla1Zs6aiooKiKI7j/H6/z+cbN27c1KlTr1+/brfbaZreunUriqJnz561Wq0oihqNxsHBQYlEQtN0dnb2kydP7t69Ozg42N7e3tbWtm7dupiYGAAABgcHdTqdz+cDjhw5EhkZKRKJnE5nXl5eZWUlwzAwDDudzo0bN37//fcKhYLneY7j9Ho9x3FdXV2XL1/Oy8uLjY0VBMHtdnMcFxkZOTg4yLIsAAA0TRsMBp/PJwjCwMDApUuXrl27Fh8fP3Xq1Dlz5qAoCoJgMBiUSCT9/f0qlUqr1b711lsffvih0WisrKxMT0+32+0lJSVKpfLdd9+ladrr9W7atEmj0chkMpfLpdPpSJL0er0mk6mjo0OhUEAQJAiC0WhUqVSDg4N//fVXX1/fkSNHbty4EQwGx40b19zcrNFohoaGGIYxGAyBQGDmzJkXL170+XxKpZJhGIVCQZIkx3EkSWZmZkokksLCwsjISK/XSxCEVCr9/fffBwYG3n//fbVabbfbIQhKTU29d+8eiqIkSUIQJJfLfT6fx+PBMCwlJaWxsTEYDBoMhidPnjx9+nTixIn/+Mc/lErlvn37IAhSKBTAwYMHP/vssyNHjvT19X3xxReDg4N1dXVqtZokSQAAlEqlx+MJBAImkykcDr969aqmpobn+dbW1mPHjslkMrvdPnny5IcPHyIIkpmZWVNT4/V6MzIyLl68CABAQUHBihUrHj9+LAhCaWnpiBEjFi9ePG3aNKlUevv2bRRF/X4/SZK9vb2NjY3Tpk1rbW1NTU2lKIpl2fv377/77ruCIAAAkJaWplKpZDLZ8uXLq6qqvF6vSqWyWCwEQQQCgWXLltXU1MydO7e1tbW9vR2G4aGhodbW1oULF0okEgiC0tLSfv/9dwiCWJYdGhrSarUwDEMQJJVKh4aGLBbLN998s2fPHp7nrVarRqMRi8WZmZnFxcUYhrEsq9VqHzx4UF9fn5ubm5CQsGDBglOnTgWDQRzHCYLo7+83mUxisZimaYfDodFo1q5dW1ZWFgqF7Hb7wMCAWCyeOnUqRVEqler+/fs7duygaRo4e/YsCIIAAGRkZDQ2NgIAYLFYdDqd1+vVarUzZsy4cuVKS0uLTCajafrq1auCIDAMM3/+/P/85z8wDJ86dSo3N7eyspLjOJZlIQiaOXOmWq12OBxNTU0ej0csFhcWFgqCwHEcz/PBYLCzs7Orq2vWrFkcx4EgCEGQVCqFIEgsFgeDQZVK5fV6IQgCQZDneRzH7Xb7H3/8cfPmzf7+fp1Ox/N8V1cXQRA8z+M4TpLk7t27v/32W4lEwvM8giAikWj69On5+fljx45966233G633W4nCAJFUbVabbfbe3t7Y2JiYBhGUXT69OklJSUxMTGdnZ1JSUmBQEAikQwODpIkaTAYRCLRqlWr/vvf/545cwZBEKPRePHixcrKSrfb7fV6XS7X//3f/8nl8pqamo6ODrlcznEcAAAsyyIIMnPmzNra2kePHv3vf//74YcfvF6vTqfLz88/efKkx+MBrl69+vTpU5PJFAgEvvrqq88//1ylUkml0vz8/OLi4kePHrEsa7FY7t27Z7fbYRieMmVKbGzs8uXLnz9/3tnZKZfLYRhOSkrq7e0dNmxYR0fHixcvhg0b5nK5EAQRBMHhcFy5cuW3334LBAIZGRk0TbMsK5VKHz9+nJCQIJVK6+rqZs6cKRKJ7ty543Q6N2zY4PV6fT6fXq+3Wq319fWpqamJiYmff/55R0eHIAgej2fUqFHd3d0AAEgkkoyMjIqKCqfTybLsggUL7t27xzCMIAgvXrxQKBSRkZETJ05sbm7GMMzpdG7ZsqW8vJyiqGAwKJVKMQxjGMZms4Eg+PTp08LCwm+//dZgMPA839fXl5CQEAgEsrKyfvrpp7KyMp/PFx8fv3nz5smTJ2u12mPHjgmCQBBEZmbmqVOnli1bdvr06WAwiOO4XC6HYdjpdA4MDPA8f/Dgwd27d8fFxWEY9tdff8XExIjFYqCkpGTdunV2uz0yMnLXrl0EQXAc19vb29bWptVqEQSZOnXqnTt3bt68yfM8DMO7du1atmzZL7/8snz58qqqqvj4+KGhoUAgkJGRUV1dbbVahw8fvnjx4kAgUF9f73K5Hj16tGvXrqysLLvdHggE0Nc6OzsTExMJgmhtbR09enQwGIQgqKysbNu2bS6Xq6amZvHixTzPh0IhGIaDweCkSZNSUlJsNpvZbEYQxO/3A6/19fVFREQQBDE0NETTtEKhCAaDOI4Hg0EAADweT1ZW1vXr151OJ4qiWq3WZrPl5eWVlZUBAMDzfHp6em1tbVNT05UrVwiCyMrKQhBEIpHMmTPn7t27mZmZ+/btw3H8jz/+uHXrFs/zL1686Ovru3TpksfjMZlMQ0NDY8aM6enpgWFYrVa3tbVBEDRx4kSHwwHDsN1uVygU3d3dZrN56dKlx48fz8zMrK2tFYvF06dPBxoaGubMmYNh2KVLl6ZPn/7bb79NnTp18eLFIpHI7XaDIDhs2DCPx0PTNIZhAADk5eWZzeZAIJCSklJbW6tUKimKUqvVaWlpJSUlDMPI5XIIgiQSSSgUunbt2o0bN+Ry+Ztvvslx3KhRo1wu18aNG+fNm6dQKKxWK8dxBEGwLDtz5szk5GRBEB48eNDY2MiyLI7jUqmU47hwOLxkyZLRo0dbLBaJREJRFMdxMAz7/f41a9Zcv37d6/UyDLN69eqSkhIcx61Wq1qt9vv9DMNER0czDNPd3Y0giMFgEIvFHo8Hek2j0dy/f//KlSudnZ1Go3HKlClHjhwpLCwEAIDneYlEMnPmzPLychRFz5w58+rVKwAA2tvbjx07Fh0d/fDhw0mTJtlsNo7jAoGA0Wjked7v99tstvj4+MePH8fGxobDYRAEr127FhUVFR0dnZSU1NraOn78+N7e3nA4DBw9ehTDMLFYTFGURqNhWVYkEjU0NDx69IhlWY7jeJ7XaDQkScrlchzHp02bNnnyZJfLpVKpMAyzWCzDhw9PSkoqLS2Nj4/3er0ffvjhoUOH5HL5vXv3Ll26BMNwZWUlQRAPHz50OBzhcNhut9OvSSQSt9tdV1fn8/nefPPNjz/+uLOzkyCItra25uZmkiRhGGZZdmBgoKmp6Y8//mhvb5dIJBERETabzWQyWa3WcDhsNptTU1NNJtOxY8dwHAdBsLm5eefOnadPn1YqlYIguN1usVhsMpl8Pp9Go+nt7cVx3GazzZo164MPPoBhmGXZsWPHLliwgOd5qVQ6fvz42tpak8mUlpZWV1c3adKklJSUUChEEASKogRBZGRkSKXSwcHB6Ohom82m0+k4jqNpGsfxjRs37tu3j+M4qVQaCAS+/vrrvXv3Wq3WyMjI995778aNG263GwAAgiCAqqqqYDAIgiDLsoODg1qtFgRBkUhUVFRE0zSKomPGjOF5vq+vz+FwOJ3OsWPHFhQUQBDU3t7e29s7adKk7u7u1atXFxYWRkVFWa3W/Pz8ixcvtra2NjQ0hEKh+fPnv/XWW4IguFwuuVw+efLke/fuJScn3759GwCAvLy87777rrm5uaura/HixcnJyStWrDhz5ozL5XI4HGVlZSzL1tbWZmdnz5w5Mz4+HsdxgiA8Hg/LsiAIQhAkkUgoiqJpWq/XT5gwoaWlhSTJzMzM4uJivV4PgqBKpRKLxW+88UZ0dPTPP/+s0+nS09NtNhuO4zNnzrTb7Q8fPqQo6ptvvvnkk08EQTh79iwAAJ988snBgweHhoZGjx6dm5v71VdfrVq1KiUlBQCADz74wOPxiMXi5ORkn88XDofVarXNZhs+fLhIJOro6DCbzV6vF8fx9evXcxxXXV3tcDgYhgmHwyRJMgwjl8uB4uJik8nU29ublZVVUVFhNpt9Pl84HP7999+PHz/u8Xhu377t8/lUKpXVar1161Z3d3d1dfXnn39+4MCBWbNmjRkzZurUqT09PTqdTvKaTCabMmXK7NmzYRgePnx4ZmYmx3HhcPj9998XBOH48eM0TcfGxhqNxt7e3uzs7OPHj3/44Yd2u33Hjh1paWlut1upVCII4na7T5061djYmJKSEgwGOzo6Vq5cOWvWLLfbjWFYdHR0enr6oUOHIAhKT08vLy+HYRgEQb/fr1QqaZrOzc0tKysjSVKhUAwODoIgCACAy+Vqbm5+9uyZQqEQBCEcDut0OoqiHj9+3N/ff+bMGblcrtPppk+ffubMGYVCwTBMKBT67rvv/v3vf9tstqKiIrlcfubMGRzHS0tL582bl5ycfPz4cUEQuru7TSbTzp07CwsLbTab2+1mWZbneYPB4PV6VSoVBEEAAAQCgQULFgAA8P9TvvTVih5XfgAAAABJRU5ErkJggg==;" vertex="1" parent="1">
          <mxGeometry x="80" y="40" width="160" height="160" as="geometry" />
        </mxCell>
        <mxCell id="B9ramNsetT_-WB2Bf5wg-2" value="&lt;font style=&quot;font-size: 20px;&quot; face=&quot;Times New Roman&quot;&gt;&lt;b style=&quot;&quot;&gt;noise image&lt;/b&gt;&lt;/font&gt;" style="text;html=1;align=center;verticalAlign=middle;whiteSpace=wrap;rounded=0;" vertex="1" parent="1">
          <mxGeometry x="100.5" y="200" width="119" height="30" as="geometry" />
        </mxCell>
      </root>
    </mxGraphModel>
  </diagram>
</mxfile>
